<svg width="237" height="48" viewBox="0 0 237 48" fill="none" xmlns="http://www.w3.org/2000/svg">
<path d="M36.596 24.016C38.436 24.016 39.396 24.944 39.396 26.336C39.396 27.824 38.42 28.784 36.916 28.784C35.46 28.784 34.532 27.904 34.532 26.4H32.98C32.98 28.8 34.612 30.192 36.884 30.192C39.236 30.192 40.996 28.704 40.996 26.368C40.996 24.288 39.508 22.96 37.54 22.72L40.708 19.696V18.432H33.524V19.824H38.724L35.444 22.976V24.016H36.596ZM43.8498 22.096C42.6658 23.712 42.2498 24.672 42.2498 26.048C42.2498 28.384 44.1058 30.192 46.5058 30.192C48.8898 30.192 50.7138 28.464 50.7138 26.048C50.7138 23.76 49.0978 22.032 46.6978 22.032C46.2977 22.032 45.8818 22.112 45.4818 22.272L48.3778 18.432H46.5538L43.8498 22.096ZM43.8498 26.064C43.8498 24.48 44.9378 23.36 46.5058 23.36C48.0418 23.36 49.1298 24.48 49.1298 26.064C49.1298 27.648 48.0418 28.784 46.5058 28.784C44.9378 28.784 43.8498 27.648 43.8498 26.064ZM54.3753 29.376C54.3753 28.496 53.8313 27.936 53.1593 27.936C52.5193 27.936 52.0872 28.4 52.0872 29.04C52.0872 29.632 52.5353 30.016 53.0633 30.016C53.2553 30.016 53.3832 29.984 53.4953 29.92C53.4953 30.416 53.0312 30.848 52.3753 30.96V31.632C53.5113 31.488 54.3753 30.528 54.3753 29.376ZM57.2248 22.096C56.0408 23.712 55.6248 24.672 55.6248 26.048C55.6248 28.384 57.4808 30.192 59.8808 30.192C62.2648 30.192 64.0888 28.464 64.0888 26.048C64.0888 23.76 62.4728 22.032 60.0728 22.032C59.6727 22.032 59.2568 22.112 58.8568 22.272L61.7528 18.432H59.9288L57.2248 22.096ZM57.2248 26.064C57.2248 24.48 58.3128 23.36 59.8808 23.36C61.4168 23.36 62.5048 24.48 62.5048 26.064C62.5048 27.648 61.4168 28.784 59.8808 28.784C58.3128 28.784 57.2248 27.648 57.2248 26.064ZM74.158 27.664V26.272H72.782V18.432H70.75L65.294 26.272V27.664H71.278V30H72.782V27.664H74.158ZM66.99 26.272L71.278 20.096V26.272H66.99ZM77.3045 19.84V30H78.8085V18.432H74.8725V19.84H77.3045ZM82.3486 30.192C82.9566 30.192 83.4846 29.68 83.4846 29.072C83.4846 28.448 82.9566 27.936 82.3486 27.936C81.7246 27.936 81.1966 28.448 81.1966 29.072C81.1966 29.68 81.7246 30.192 82.3486 30.192ZM93.1065 29.984V28.528H87.7625L90.1625 26.448C92.2105 24.672 93.0265 23.504 93.0265 21.856C93.0265 19.632 91.5385 18.224 89.2185 18.224C86.8665 18.224 85.2985 19.84 85.2505 22.32H86.8185C86.8505 20.672 87.7785 19.632 89.2025 19.632C90.5945 19.632 91.4265 20.496 91.4265 21.952C91.4265 23.184 90.8985 23.968 89.0265 25.584L85.2985 28.8V30L93.1065 29.984ZM94.5496 24.224C94.5496 27.824 96.3256 30.208 99.3176 30.208C102.294 30.208 104.07 27.824 104.07 24.224C104.07 20.64 102.214 18.208 99.3176 18.208C96.4056 18.208 94.5496 20.64 94.5496 24.224ZM96.1016 24.224C96.1016 21.344 97.2856 19.616 99.3176 19.616C101.35 19.616 102.518 21.344 102.518 24.224C102.518 27.072 101.35 28.8 99.3176 28.8C97.2856 28.8 96.1016 27.072 96.1016 24.224Z" fill="#25C26E"/>
<path fill-rule="evenodd" clip-rule="evenodd" d="M124.656 22.606C124.906 22.3355 124.889 21.9137 124.619 21.6639L122.285 19.5101C122.03 19.2744 121.636 19.2744 121.381 19.5101L119.048 21.6639C118.777 21.9137 118.76 22.3354 119.01 22.606C119.26 22.8765 119.682 22.8934 119.952 22.6437L121.167 21.5226L121.167 28C121.167 28.3681 121.465 28.6666 121.833 28.6666C122.201 28.6666 122.5 28.3681 122.5 28L122.5 21.5226L123.714 22.6437C123.985 22.8934 124.407 22.8765 124.656 22.606Z" fill="#25C26E"/>
<path d="M141.596 24.016C143.436 24.016 144.396 24.944 144.396 26.336C144.396 27.824 143.42 28.784 141.916 28.784C140.46 28.784 139.532 27.904 139.532 26.4H137.98C137.98 28.8 139.612 30.192 141.884 30.192C144.236 30.192 145.996 28.704 145.996 26.368C145.996 24.288 144.508 22.96 142.54 22.72L145.708 19.696V18.432H138.524V19.824H143.724L140.444 22.976V24.016H141.596ZM148.85 22.096C147.666 23.712 147.25 24.672 147.25 26.048C147.25 28.384 149.106 30.192 151.506 30.192C153.89 30.192 155.714 28.464 155.714 26.048C155.714 23.76 154.098 22.032 151.698 22.032C151.298 22.032 150.882 22.112 150.482 22.272L153.378 18.432H151.554L148.85 22.096ZM148.85 26.064C148.85 24.48 149.938 23.36 151.506 23.36C153.042 23.36 154.13 24.48 154.13 26.064C154.13 27.648 153.042 28.784 151.506 28.784C149.938 28.784 148.85 27.648 148.85 26.064ZM159.375 29.376C159.375 28.496 158.831 27.936 158.159 27.936C157.519 27.936 157.087 28.4 157.087 29.04C157.087 29.632 157.535 30.016 158.063 30.016C158.255 30.016 158.383 29.984 158.495 29.92C158.495 30.416 158.031 30.848 157.375 30.96V31.632C158.511 31.488 159.375 30.528 159.375 29.376ZM162.225 22.096C161.041 23.712 160.625 24.672 160.625 26.048C160.625 28.384 162.481 30.192 164.881 30.192C167.265 30.192 169.089 28.464 169.089 26.048C169.089 23.76 167.473 22.032 165.073 22.032C164.673 22.032 164.257 22.112 163.857 22.272L166.753 18.432H164.929L162.225 22.096ZM162.225 26.064C162.225 24.48 163.313 23.36 164.881 23.36C166.417 23.36 167.505 24.48 167.505 26.064C167.505 27.648 166.417 28.784 164.881 28.784C163.313 28.784 162.225 27.648 162.225 26.064ZM179.158 27.664V26.272H177.782V18.432H175.75L170.294 26.272V27.664H176.278V30H177.782V27.664H179.158ZM171.99 26.272L176.278 20.096V26.272H171.99ZM182.305 19.84V30H183.809V18.432H179.873V19.84H182.305ZM187.349 30.192C187.957 30.192 188.485 29.68 188.485 29.072C188.485 28.448 187.957 27.936 187.349 27.936C186.725 27.936 186.197 28.448 186.197 29.072C186.197 29.68 186.725 30.192 187.349 30.192ZM198.107 29.984V28.528H192.763L195.163 26.448C197.211 24.672 198.027 23.504 198.027 21.856C198.027 19.632 196.539 18.224 194.219 18.224C191.867 18.224 190.299 19.84 190.251 22.32H191.819C191.851 20.672 192.779 19.632 194.203 19.632C195.595 19.632 196.427 20.496 196.427 21.952C196.427 23.184 195.899 23.968 194.027 25.584L190.299 28.8V30L198.107 29.984ZM199.55 24.224C199.55 27.824 201.326 30.208 204.318 30.208C207.294 30.208 209.07 27.824 209.07 24.224C209.07 20.64 207.214 18.208 204.318 18.208C201.406 18.208 199.55 20.64 199.55 24.224ZM201.102 24.224C201.102 21.344 202.286 19.616 204.318 19.616C206.35 19.616 207.518 21.344 207.518 24.224C207.518 27.072 206.35 28.8 204.318 28.8C202.286 28.8 201.102 27.072 201.102 24.224Z" fill="#FCFCFD"/>
</svg>
