<svg width="238" height="188" viewBox="0 0 238 188" fill="none" xmlns="http://www.w3.org/2000/svg">
<path d="M20.072 14.512C21.452 14.512 22.172 15.208 22.172 16.252C22.172 17.368 21.44 18.088 20.312 18.088C19.22 18.088 18.524 17.428 18.524 16.3H17.36C17.36 18.1 18.584 19.144 20.288 19.144C22.052 19.144 23.372 18.028 23.372 16.276C23.372 14.716 22.256 13.72 20.78 13.54L23.156 11.272V10.324H17.768V11.368H21.668L19.208 13.732V14.512H20.072ZM25.5123 13.072C24.6243 14.284 24.3123 15.004 24.3123 16.036C24.3123 17.788 25.7043 19.144 27.5043 19.144C29.2923 19.144 30.6603 17.848 30.6603 16.036C30.6603 14.32 29.4483 13.024 27.6483 13.024C27.3483 13.024 27.0363 13.084 26.7363 13.204L28.9083 10.324H27.5403L25.5123 13.072ZM25.5123 16.048C25.5123 14.86 26.3283 14.02 27.5043 14.02C28.6563 14.02 29.4723 14.86 29.4723 16.048C29.4723 17.236 28.6563 18.088 27.5043 18.088C26.3283 18.088 25.5123 17.236 25.5123 16.048ZM36.5619 16.252C37.4499 15.04 37.7619 14.308 37.7619 13.288C37.7619 11.524 36.3699 10.168 34.5699 10.168C32.7819 10.168 31.4139 11.476 31.4139 13.276C31.4139 15.004 32.6259 16.3 34.4259 16.3C34.7259 16.3 35.0379 16.24 35.3379 16.12L33.1659 19H34.5339L36.5619 16.252ZM36.5619 13.276C36.5619 14.464 35.7459 15.304 34.5699 15.304C33.4179 15.304 32.6019 14.464 32.6019 13.276C32.6019 12.088 33.4179 11.224 34.5699 11.224C35.7459 11.224 36.5619 12.088 36.5619 13.276ZM44.6189 18.988V17.896H40.6109L42.4109 16.336C43.9469 15.004 44.5589 14.128 44.5589 12.892C44.5589 11.224 43.4429 10.168 41.7029 10.168C39.9389 10.168 38.7629 11.38 38.7269 13.24H39.9029C39.9269 12.004 40.6229 11.224 41.6909 11.224C42.7349 11.224 43.3589 11.872 43.3589 12.964C43.3589 13.888 42.9629 14.476 41.5589 15.688L38.7629 18.1V19L44.6189 18.988ZM45.7013 14.668C45.7013 17.368 47.0333 19.156 49.2773 19.156C51.5093 19.156 52.8413 17.368 52.8413 14.668C52.8413 11.98 51.4493 10.156 49.2773 10.156C47.0933 10.156 45.7013 11.98 45.7013 14.668ZM46.8653 14.668C46.8653 12.508 47.7533 11.212 49.2773 11.212C50.8013 11.212 51.6773 12.508 51.6773 14.668C51.6773 16.804 50.8013 18.1 49.2773 18.1C47.7533 18.1 46.8653 16.804 46.8653 14.668ZM54.5974 19.144C55.0534 19.144 55.4494 18.76 55.4494 18.304C55.4494 17.836 55.0534 17.452 54.5974 17.452C54.1294 17.452 53.7334 17.836 53.7334 18.304C53.7334 18.76 54.1294 19.144 54.5974 19.144ZM57.5292 11.38V19H58.6572V10.324H55.7052V11.38H57.5292ZM66.0643 18.988V17.896H62.0563L63.8563 16.336C65.3923 15.004 66.0043 14.128 66.0043 12.892C66.0043 11.224 64.8883 10.168 63.1483 10.168C61.3843 10.168 60.2083 11.38 60.1723 13.24H61.3483C61.3723 12.004 62.0683 11.224 63.1363 11.224C64.1803 11.224 64.8043 11.872 64.8043 12.964C64.8043 13.888 64.4083 14.476 63.0043 15.688L60.2083 18.1V19L66.0643 18.988Z" fill="#25C26E"/>
<path d="M89.5372 14.668C89.5372 17.368 90.8692 19.156 93.1132 19.156C95.3452 19.156 96.6772 17.368 96.6772 14.668C96.6772 11.98 95.2852 10.156 93.1132 10.156C90.9292 10.156 89.5372 11.98 89.5372 14.668ZM90.7012 14.668C90.7012 12.508 91.5892 11.212 93.1132 11.212C94.6372 11.212 95.5132 12.508 95.5132 14.668C95.5132 16.804 94.6372 18.1 93.1132 18.1C91.5892 18.1 90.7012 16.804 90.7012 14.668ZM98.4333 19.144C98.8893 19.144 99.2853 18.76 99.2853 18.304C99.2853 17.836 98.8893 17.452 98.4333 17.452C97.9653 17.452 97.5693 17.836 97.5693 18.304C97.5693 18.76 97.9653 19.144 98.4333 19.144ZM99.8265 10.324V11.404H104.698L101.374 19H102.598L105.886 11.404V10.324H99.8265ZM109.281 19.144C111.153 19.144 112.437 17.884 112.437 16.084C112.437 14.416 111.297 13.18 109.533 13.18C108.885 13.18 108.309 13.36 107.853 13.708L108.429 11.404H111.921V10.324H107.577L106.521 14.776L107.517 15.028C107.913 14.536 108.585 14.188 109.317 14.188C110.529 14.188 111.237 15.016 111.237 16.132C111.237 17.308 110.481 18.088 109.305 18.088C108.201 18.088 107.517 17.404 107.517 16.288H106.353C106.353 18.016 107.505 19.144 109.281 19.144ZM113.431 16.588C113.431 18.124 114.691 19.144 116.623 19.144C118.543 19.144 119.815 18.124 119.815 16.6C119.815 15.532 119.191 14.668 118.219 14.356C119.035 14.032 119.491 13.348 119.491 12.46C119.491 11.092 118.339 10.168 116.635 10.168C114.907 10.168 113.743 11.092 113.743 12.448C113.743 13.324 114.187 14.008 115.003 14.356C114.043 14.704 113.431 15.544 113.431 16.588ZM114.823 12.52C114.823 11.716 115.531 11.188 116.611 11.188C117.703 11.188 118.387 11.716 118.387 12.544C118.387 13.384 117.703 13.924 116.611 13.924C115.531 13.924 114.823 13.372 114.823 12.52ZM114.583 16.504C114.583 15.544 115.375 14.932 116.611 14.932C117.859 14.932 118.651 15.544 118.651 16.504C118.651 17.476 117.847 18.1 116.623 18.1C115.387 18.1 114.583 17.476 114.583 16.504ZM126.007 16.252C126.895 15.04 127.207 14.308 127.207 13.288C127.207 11.524 125.815 10.168 124.015 10.168C122.227 10.168 120.859 11.476 120.859 13.276C120.859 15.004 122.071 16.3 123.871 16.3C124.171 16.3 124.483 16.24 124.783 16.12L122.611 19H123.979L126.007 16.252ZM126.007 13.276C126.007 14.464 125.191 15.304 124.015 15.304C122.863 15.304 122.047 14.464 122.047 13.276C122.047 12.088 122.863 11.224 124.015 11.224C125.191 11.224 126.007 12.088 126.007 13.276ZM129.29 13.072C128.402 14.284 128.09 15.004 128.09 16.036C128.09 17.788 129.482 19.144 131.282 19.144C133.07 19.144 134.438 17.848 134.438 16.036C134.438 14.32 133.226 13.024 131.426 13.024C131.126 13.024 130.814 13.084 130.514 13.204L132.686 10.324H131.318L129.29 13.072ZM129.29 16.048C129.29 14.86 130.106 14.02 131.282 14.02C132.434 14.02 133.25 14.86 133.25 16.048C133.25 17.236 132.434 18.088 131.282 18.088C130.106 18.088 129.29 17.236 129.29 16.048ZM138.414 19.144C140.286 19.144 141.57 17.884 141.57 16.084C141.57 14.416 140.43 13.18 138.666 13.18C138.018 13.18 137.442 13.36 136.986 13.708L137.562 11.404H141.054V10.324H136.71L135.654 14.776L136.65 15.028C137.046 14.536 137.718 14.188 138.45 14.188C139.662 14.188 140.37 15.016 140.37 16.132C140.37 17.308 139.614 18.088 138.438 18.088C137.334 18.088 136.65 17.404 136.65 16.288H135.486C135.486 18.016 136.638 19.144 138.414 19.144Z" fill="white"/>
<path d="M169.529 18.988V17.896H165.521L167.321 16.336C168.857 15.004 169.469 14.128 169.469 12.892C169.469 11.224 168.353 10.168 166.613 10.168C164.849 10.168 163.673 11.38 163.637 13.24H164.813C164.837 12.004 165.533 11.224 166.601 11.224C167.645 11.224 168.269 11.872 168.269 12.964C168.269 13.888 167.873 14.476 166.469 15.688L163.673 18.1V19L169.529 18.988ZM170.587 16.588C170.587 18.124 171.847 19.144 173.779 19.144C175.699 19.144 176.971 18.124 176.971 16.6C176.971 15.532 176.347 14.668 175.375 14.356C176.191 14.032 176.647 13.348 176.647 12.46C176.647 11.092 175.495 10.168 173.791 10.168C172.063 10.168 170.899 11.092 170.899 12.448C170.899 13.324 171.343 14.008 172.159 14.356C171.199 14.704 170.587 15.544 170.587 16.588ZM171.979 12.52C171.979 11.716 172.687 11.188 173.767 11.188C174.859 11.188 175.543 11.716 175.543 12.544C175.543 13.384 174.859 13.924 173.767 13.924C172.687 13.924 171.979 13.372 171.979 12.52ZM171.739 16.504C171.739 15.544 172.531 14.932 173.767 14.932C175.015 14.932 175.807 15.544 175.807 16.504C175.807 17.476 175.003 18.1 173.779 18.1C172.543 18.1 171.739 17.476 171.739 16.504ZM179.903 18.532C179.903 17.872 179.495 17.452 178.991 17.452C178.511 17.452 178.187 17.8 178.187 18.28C178.187 18.724 178.523 19.012 178.919 19.012C179.063 19.012 179.159 18.988 179.243 18.94C179.243 19.312 178.895 19.636 178.403 19.72V20.224C179.255 20.116 179.903 19.396 179.903 18.532ZM180.807 14.668C180.807 17.368 182.139 19.156 184.383 19.156C186.615 19.156 187.947 17.368 187.947 14.668C187.947 11.98 186.555 10.156 184.383 10.156C182.199 10.156 180.807 11.98 180.807 14.668ZM181.971 14.668C181.971 12.508 182.859 11.212 184.383 11.212C185.907 11.212 186.783 12.508 186.783 14.668C186.783 16.804 185.907 18.1 184.383 18.1C182.859 18.1 181.971 16.804 181.971 14.668ZM194.947 18.988V17.896H190.939L192.739 16.336C194.275 15.004 194.887 14.128 194.887 12.892C194.887 11.224 193.771 10.168 192.031 10.168C190.267 10.168 189.091 11.38 189.055 13.24H190.231C190.255 12.004 190.951 11.224 192.019 11.224C193.063 11.224 193.687 11.872 193.687 12.964C193.687 13.888 193.291 14.476 191.887 15.688L189.091 18.1V19L194.947 18.988ZM196.029 14.668C196.029 17.368 197.361 19.156 199.605 19.156C201.837 19.156 203.169 17.368 203.169 14.668C203.169 11.98 201.777 10.156 199.605 10.156C197.421 10.156 196.029 11.98 196.029 14.668ZM197.193 14.668C197.193 12.508 198.081 11.212 199.605 11.212C201.129 11.212 202.005 12.508 202.005 14.668C202.005 16.804 201.129 18.1 199.605 18.1C198.081 18.1 197.193 16.804 197.193 14.668ZM204.926 19.144C205.382 19.144 205.778 18.76 205.778 18.304C205.778 17.836 205.382 17.452 204.926 17.452C204.458 17.452 204.062 17.836 204.062 18.304C204.062 18.76 204.458 19.144 204.926 19.144ZM211.91 16.252C212.798 15.04 213.11 14.308 213.11 13.288C213.11 11.524 211.718 10.168 209.918 10.168C208.13 10.168 206.762 11.476 206.762 13.276C206.762 15.004 207.974 16.3 209.774 16.3C210.074 16.3 210.386 16.24 210.686 16.12L208.514 19H209.882L211.91 16.252ZM211.91 13.276C211.91 14.464 211.094 15.304 209.918 15.304C208.766 15.304 207.95 14.464 207.95 13.276C207.95 12.088 208.766 11.224 209.918 11.224C211.094 11.224 211.91 12.088 211.91 13.276ZM214.064 16.588C214.064 18.124 215.324 19.144 217.256 19.144C219.176 19.144 220.448 18.124 220.448 16.6C220.448 15.532 219.824 14.668 218.852 14.356C219.668 14.032 220.124 13.348 220.124 12.46C220.124 11.092 218.972 10.168 217.268 10.168C215.54 10.168 214.376 11.092 214.376 12.448C214.376 13.324 214.82 14.008 215.636 14.356C214.676 14.704 214.064 15.544 214.064 16.588ZM215.456 12.52C215.456 11.716 216.164 11.188 217.244 11.188C218.336 11.188 219.02 11.716 219.02 12.544C219.02 13.384 218.336 13.924 217.244 13.924C216.164 13.924 215.456 13.372 215.456 12.52ZM215.216 16.504C215.216 15.544 216.008 14.932 217.244 14.932C218.492 14.932 219.284 15.544 219.284 16.504C219.284 17.476 218.48 18.1 217.256 18.1C216.02 18.1 215.216 17.476 215.216 16.504Z" fill="white"/>
<g opacity="0.15">
<rect width="220" height="28" transform="translate(18)" fill="#25C26E"/>
</g>
<path d="M20.072 46.512C21.452 46.512 22.172 47.208 22.172 48.252C22.172 49.368 21.44 50.088 20.312 50.088C19.22 50.088 18.524 49.428 18.524 48.3H17.36C17.36 50.1 18.584 51.144 20.288 51.144C22.052 51.144 23.372 50.028 23.372 48.276C23.372 46.716 22.256 45.72 20.78 45.54L23.156 43.272V42.324H17.768V43.368H21.668L19.208 45.732V46.512H20.072ZM25.5123 45.072C24.6243 46.284 24.3123 47.004 24.3123 48.036C24.3123 49.788 25.7043 51.144 27.5043 51.144C29.2923 51.144 30.6603 49.848 30.6603 48.036C30.6603 46.32 29.4483 45.024 27.6483 45.024C27.3483 45.024 27.0363 45.084 26.7363 45.204L28.9083 42.324H27.5403L25.5123 45.072ZM25.5123 48.048C25.5123 46.86 26.3283 46.02 27.5043 46.02C28.6563 46.02 29.4723 46.86 29.4723 48.048C29.4723 49.236 28.6563 50.088 27.5043 50.088C26.3283 50.088 25.5123 49.236 25.5123 48.048ZM36.5619 48.252C37.4499 47.04 37.7619 46.308 37.7619 45.288C37.7619 43.524 36.3699 42.168 34.5699 42.168C32.7819 42.168 31.4139 43.476 31.4139 45.276C31.4139 47.004 32.6259 48.3 34.4259 48.3C34.7259 48.3 35.0379 48.24 35.3379 48.12L33.1659 51H34.5339L36.5619 48.252ZM36.5619 45.276C36.5619 46.464 35.7459 47.304 34.5699 47.304C33.4179 47.304 32.6019 46.464 32.6019 45.276C32.6019 44.088 33.4179 43.224 34.5699 43.224C35.7459 43.224 36.5619 44.088 36.5619 45.276ZM44.6189 50.988V49.896H40.6109L42.4109 48.336C43.9469 47.004 44.5589 46.128 44.5589 44.892C44.5589 43.224 43.4429 42.168 41.7029 42.168C39.9389 42.168 38.7629 43.38 38.7269 45.24H39.9029C39.9269 44.004 40.6229 43.224 41.6909 43.224C42.7349 43.224 43.3589 43.872 43.3589 44.964C43.3589 45.888 42.9629 46.476 41.5589 47.688L38.7629 50.1V51L44.6189 50.988ZM45.7013 46.668C45.7013 49.368 47.0333 51.156 49.2773 51.156C51.5093 51.156 52.8413 49.368 52.8413 46.668C52.8413 43.98 51.4493 42.156 49.2773 42.156C47.0933 42.156 45.7013 43.98 45.7013 46.668ZM46.8653 46.668C46.8653 44.508 47.7533 43.212 49.2773 43.212C50.8013 43.212 51.6773 44.508 51.6773 46.668C51.6773 48.804 50.8013 50.1 49.2773 50.1C47.7533 50.1 46.8653 48.804 46.8653 46.668ZM54.5974 51.144C55.0534 51.144 55.4494 50.76 55.4494 50.304C55.4494 49.836 55.0534 49.452 54.5974 49.452C54.1294 49.452 53.7334 49.836 53.7334 50.304C53.7334 50.76 54.1294 51.144 54.5974 51.144ZM57.5292 43.38V51H58.6572V42.324H55.7052V43.38H57.5292ZM66.0643 50.988V49.896H62.0563L63.8563 48.336C65.3923 47.004 66.0043 46.128 66.0043 44.892C66.0043 43.224 64.8883 42.168 63.1483 42.168C61.3843 42.168 60.2083 43.38 60.1723 45.24H61.3483C61.3723 44.004 62.0683 43.224 63.1363 43.224C64.1803 43.224 64.8043 43.872 64.8043 44.964C64.8043 45.888 64.4083 46.476 63.0043 47.688L60.2083 50.1V51L66.0643 50.988Z" fill="#25C26E"/>
<path d="M89.5372 46.668C89.5372 49.368 90.8692 51.156 93.1132 51.156C95.3452 51.156 96.6772 49.368 96.6772 46.668C96.6772 43.98 95.2852 42.156 93.1132 42.156C90.9292 42.156 89.5372 43.98 89.5372 46.668ZM90.7012 46.668C90.7012 44.508 91.5892 43.212 93.1132 43.212C94.6372 43.212 95.5132 44.508 95.5132 46.668C95.5132 48.804 94.6372 50.1 93.1132 50.1C91.5892 50.1 90.7012 48.804 90.7012 46.668ZM98.4333 51.144C98.8893 51.144 99.2853 50.76 99.2853 50.304C99.2853 49.836 98.8893 49.452 98.4333 49.452C97.9653 49.452 97.5693 49.836 97.5693 50.304C97.5693 50.76 97.9653 51.144 98.4333 51.144ZM99.8265 42.324V43.404H104.698L101.374 51H102.598L105.886 43.404V42.324H99.8265ZM109.281 51.144C111.153 51.144 112.437 49.884 112.437 48.084C112.437 46.416 111.297 45.18 109.533 45.18C108.885 45.18 108.309 45.36 107.853 45.708L108.429 43.404H111.921V42.324H107.577L106.521 46.776L107.517 47.028C107.913 46.536 108.585 46.188 109.317 46.188C110.529 46.188 111.237 47.016 111.237 48.132C111.237 49.308 110.481 50.088 109.305 50.088C108.201 50.088 107.517 49.404 107.517 48.288H106.353C106.353 50.016 107.505 51.144 109.281 51.144ZM113.431 48.588C113.431 50.124 114.691 51.144 116.623 51.144C118.543 51.144 119.815 50.124 119.815 48.6C119.815 47.532 119.191 46.668 118.219 46.356C119.035 46.032 119.491 45.348 119.491 44.46C119.491 43.092 118.339 42.168 116.635 42.168C114.907 42.168 113.743 43.092 113.743 44.448C113.743 45.324 114.187 46.008 115.003 46.356C114.043 46.704 113.431 47.544 113.431 48.588ZM114.823 44.52C114.823 43.716 115.531 43.188 116.611 43.188C117.703 43.188 118.387 43.716 118.387 44.544C118.387 45.384 117.703 45.924 116.611 45.924C115.531 45.924 114.823 45.372 114.823 44.52ZM114.583 48.504C114.583 47.544 115.375 46.932 116.611 46.932C117.859 46.932 118.651 47.544 118.651 48.504C118.651 49.476 117.847 50.1 116.623 50.1C115.387 50.1 114.583 49.476 114.583 48.504ZM126.007 48.252C126.895 47.04 127.207 46.308 127.207 45.288C127.207 43.524 125.815 42.168 124.015 42.168C122.227 42.168 120.859 43.476 120.859 45.276C120.859 47.004 122.071 48.3 123.871 48.3C124.171 48.3 124.483 48.24 124.783 48.12L122.611 51H123.979L126.007 48.252ZM126.007 45.276C126.007 46.464 125.191 47.304 124.015 47.304C122.863 47.304 122.047 46.464 122.047 45.276C122.047 44.088 122.863 43.224 124.015 43.224C125.191 43.224 126.007 44.088 126.007 45.276ZM129.29 45.072C128.402 46.284 128.09 47.004 128.09 48.036C128.09 49.788 129.482 51.144 131.282 51.144C133.07 51.144 134.438 49.848 134.438 48.036C134.438 46.32 133.226 45.024 131.426 45.024C131.126 45.024 130.814 45.084 130.514 45.204L132.686 42.324H131.318L129.29 45.072ZM129.29 48.048C129.29 46.86 130.106 46.02 131.282 46.02C132.434 46.02 133.25 46.86 133.25 48.048C133.25 49.236 132.434 50.088 131.282 50.088C130.106 50.088 129.29 49.236 129.29 48.048ZM138.414 51.144C140.286 51.144 141.57 49.884 141.57 48.084C141.57 46.416 140.43 45.18 138.666 45.18C138.018 45.18 137.442 45.36 136.986 45.708L137.562 43.404H141.054V42.324H136.71L135.654 46.776L136.65 47.028C137.046 46.536 137.718 46.188 138.45 46.188C139.662 46.188 140.37 47.016 140.37 48.132C140.37 49.308 139.614 50.088 138.438 50.088C137.334 50.088 136.65 49.404 136.65 48.288H135.486C135.486 50.016 136.638 51.144 138.414 51.144Z" fill="white"/>
<path d="M169.529 50.988V49.896H165.521L167.321 48.336C168.857 47.004 169.469 46.128 169.469 44.892C169.469 43.224 168.353 42.168 166.613 42.168C164.849 42.168 163.673 43.38 163.637 45.24H164.813C164.837 44.004 165.533 43.224 166.601 43.224C167.645 43.224 168.269 43.872 168.269 44.964C168.269 45.888 167.873 46.476 166.469 47.688L163.673 50.1V51L169.529 50.988ZM170.587 48.588C170.587 50.124 171.847 51.144 173.779 51.144C175.699 51.144 176.971 50.124 176.971 48.6C176.971 47.532 176.347 46.668 175.375 46.356C176.191 46.032 176.647 45.348 176.647 44.46C176.647 43.092 175.495 42.168 173.791 42.168C172.063 42.168 170.899 43.092 170.899 44.448C170.899 45.324 171.343 46.008 172.159 46.356C171.199 46.704 170.587 47.544 170.587 48.588ZM171.979 44.52C171.979 43.716 172.687 43.188 173.767 43.188C174.859 43.188 175.543 43.716 175.543 44.544C175.543 45.384 174.859 45.924 173.767 45.924C172.687 45.924 171.979 45.372 171.979 44.52ZM171.739 48.504C171.739 47.544 172.531 46.932 173.767 46.932C175.015 46.932 175.807 47.544 175.807 48.504C175.807 49.476 175.003 50.1 173.779 50.1C172.543 50.1 171.739 49.476 171.739 48.504ZM179.903 50.532C179.903 49.872 179.495 49.452 178.991 49.452C178.511 49.452 178.187 49.8 178.187 50.28C178.187 50.724 178.523 51.012 178.919 51.012C179.063 51.012 179.159 50.988 179.243 50.94C179.243 51.312 178.895 51.636 178.403 51.72V52.224C179.255 52.116 179.903 51.396 179.903 50.532ZM180.807 46.668C180.807 49.368 182.139 51.156 184.383 51.156C186.615 51.156 187.947 49.368 187.947 46.668C187.947 43.98 186.555 42.156 184.383 42.156C182.199 42.156 180.807 43.98 180.807 46.668ZM181.971 46.668C181.971 44.508 182.859 43.212 184.383 43.212C185.907 43.212 186.783 44.508 186.783 46.668C186.783 48.804 185.907 50.1 184.383 50.1C182.859 50.1 181.971 48.804 181.971 46.668ZM194.947 50.988V49.896H190.939L192.739 48.336C194.275 47.004 194.887 46.128 194.887 44.892C194.887 43.224 193.771 42.168 192.031 42.168C190.267 42.168 189.091 43.38 189.055 45.24H190.231C190.255 44.004 190.951 43.224 192.019 43.224C193.063 43.224 193.687 43.872 193.687 44.964C193.687 45.888 193.291 46.476 191.887 47.688L189.091 50.1V51L194.947 50.988ZM196.029 46.668C196.029 49.368 197.361 51.156 199.605 51.156C201.837 51.156 203.169 49.368 203.169 46.668C203.169 43.98 201.777 42.156 199.605 42.156C197.421 42.156 196.029 43.98 196.029 46.668ZM197.193 46.668C197.193 44.508 198.081 43.212 199.605 43.212C201.129 43.212 202.005 44.508 202.005 46.668C202.005 48.804 201.129 50.1 199.605 50.1C198.081 50.1 197.193 48.804 197.193 46.668ZM204.926 51.144C205.382 51.144 205.778 50.76 205.778 50.304C205.778 49.836 205.382 49.452 204.926 49.452C204.458 49.452 204.062 49.836 204.062 50.304C204.062 50.76 204.458 51.144 204.926 51.144ZM211.91 48.252C212.798 47.04 213.11 46.308 213.11 45.288C213.11 43.524 211.718 42.168 209.918 42.168C208.13 42.168 206.762 43.476 206.762 45.276C206.762 47.004 207.974 48.3 209.774 48.3C210.074 48.3 210.386 48.24 210.686 48.12L208.514 51H209.882L211.91 48.252ZM211.91 45.276C211.91 46.464 211.094 47.304 209.918 47.304C208.766 47.304 207.95 46.464 207.95 45.276C207.95 44.088 208.766 43.224 209.918 43.224C211.094 43.224 211.91 44.088 211.91 45.276ZM214.064 48.588C214.064 50.124 215.324 51.144 217.256 51.144C219.176 51.144 220.448 50.124 220.448 48.6C220.448 47.532 219.824 46.668 218.852 46.356C219.668 46.032 220.124 45.348 220.124 44.46C220.124 43.092 218.972 42.168 217.268 42.168C215.54 42.168 214.376 43.092 214.376 44.448C214.376 45.324 214.82 46.008 215.636 46.356C214.676 46.704 214.064 47.544 214.064 48.588ZM215.456 44.52C215.456 43.716 216.164 43.188 217.244 43.188C218.336 43.188 219.02 43.716 219.02 44.544C219.02 45.384 218.336 45.924 217.244 45.924C216.164 45.924 215.456 45.372 215.456 44.52ZM215.216 48.504C215.216 47.544 216.008 46.932 217.244 46.932C218.492 46.932 219.284 47.544 219.284 48.504C219.284 49.476 218.48 50.1 217.256 50.1C216.02 50.1 215.216 49.476 215.216 48.504Z" fill="white"/>
<g opacity="0.15">
<rect width="160" height="28" transform="translate(78 32)" fill="#25C26E"/>
</g>
<path d="M20.072 78.512C21.452 78.512 22.172 79.208 22.172 80.252C22.172 81.368 21.44 82.088 20.312 82.088C19.22 82.088 18.524 81.428 18.524 80.3H17.36C17.36 82.1 18.584 83.144 20.288 83.144C22.052 83.144 23.372 82.028 23.372 80.276C23.372 78.716 22.256 77.72 20.78 77.54L23.156 75.272V74.324H17.768V75.368H21.668L19.208 77.732V78.512H20.072ZM25.5123 77.072C24.6243 78.284 24.3123 79.004 24.3123 80.036C24.3123 81.788 25.7043 83.144 27.5043 83.144C29.2923 83.144 30.6603 81.848 30.6603 80.036C30.6603 78.32 29.4483 77.024 27.6483 77.024C27.3483 77.024 27.0363 77.084 26.7363 77.204L28.9083 74.324H27.5403L25.5123 77.072ZM25.5123 80.048C25.5123 78.86 26.3283 78.02 27.5043 78.02C28.6563 78.02 29.4723 78.86 29.4723 80.048C29.4723 81.236 28.6563 82.088 27.5043 82.088C26.3283 82.088 25.5123 81.236 25.5123 80.048ZM36.5619 80.252C37.4499 79.04 37.7619 78.308 37.7619 77.288C37.7619 75.524 36.3699 74.168 34.5699 74.168C32.7819 74.168 31.4139 75.476 31.4139 77.276C31.4139 79.004 32.6259 80.3 34.4259 80.3C34.7259 80.3 35.0379 80.24 35.3379 80.12L33.1659 83H34.5339L36.5619 80.252ZM36.5619 77.276C36.5619 78.464 35.7459 79.304 34.5699 79.304C33.4179 79.304 32.6019 78.464 32.6019 77.276C32.6019 76.088 33.4179 75.224 34.5699 75.224C35.7459 75.224 36.5619 76.088 36.5619 77.276ZM44.6189 82.988V81.896H40.6109L42.4109 80.336C43.9469 79.004 44.5589 78.128 44.5589 76.892C44.5589 75.224 43.4429 74.168 41.7029 74.168C39.9389 74.168 38.7629 75.38 38.7269 77.24H39.9029C39.9269 76.004 40.6229 75.224 41.6909 75.224C42.7349 75.224 43.3589 75.872 43.3589 76.964C43.3589 77.888 42.9629 78.476 41.5589 79.688L38.7629 82.1V83L44.6189 82.988ZM45.7013 78.668C45.7013 81.368 47.0333 83.156 49.2773 83.156C51.5093 83.156 52.8413 81.368 52.8413 78.668C52.8413 75.98 51.4493 74.156 49.2773 74.156C47.0933 74.156 45.7013 75.98 45.7013 78.668ZM46.8653 78.668C46.8653 76.508 47.7533 75.212 49.2773 75.212C50.8013 75.212 51.6773 76.508 51.6773 78.668C51.6773 80.804 50.8013 82.1 49.2773 82.1C47.7533 82.1 46.8653 80.804 46.8653 78.668ZM54.5974 83.144C55.0534 83.144 55.4494 82.76 55.4494 82.304C55.4494 81.836 55.0534 81.452 54.5974 81.452C54.1294 81.452 53.7334 81.836 53.7334 82.304C53.7334 82.76 54.1294 83.144 54.5974 83.144ZM57.5292 75.38V83H58.6572V74.324H55.7052V75.38H57.5292ZM66.0643 82.988V81.896H62.0563L63.8563 80.336C65.3923 79.004 66.0043 78.128 66.0043 76.892C66.0043 75.224 64.8883 74.168 63.1483 74.168C61.3843 74.168 60.2083 75.38 60.1723 77.24H61.3483C61.3723 76.004 62.0683 75.224 63.1363 75.224C64.1803 75.224 64.8043 75.872 64.8043 76.964C64.8043 77.888 64.4083 78.476 63.0043 79.688L60.2083 82.1V83L66.0643 82.988Z" fill="#25C26E"/>
<path d="M89.5372 78.668C89.5372 81.368 90.8692 83.156 93.1132 83.156C95.3452 83.156 96.6772 81.368 96.6772 78.668C96.6772 75.98 95.2852 74.156 93.1132 74.156C90.9292 74.156 89.5372 75.98 89.5372 78.668ZM90.7012 78.668C90.7012 76.508 91.5892 75.212 93.1132 75.212C94.6372 75.212 95.5132 76.508 95.5132 78.668C95.5132 80.804 94.6372 82.1 93.1132 82.1C91.5892 82.1 90.7012 80.804 90.7012 78.668ZM98.4333 83.144C98.8893 83.144 99.2853 82.76 99.2853 82.304C99.2853 81.836 98.8893 81.452 98.4333 81.452C97.9653 81.452 97.5693 81.836 97.5693 82.304C97.5693 82.76 97.9653 83.144 98.4333 83.144ZM99.8265 74.324V75.404H104.698L101.374 83H102.598L105.886 75.404V74.324H99.8265ZM109.281 83.144C111.153 83.144 112.437 81.884 112.437 80.084C112.437 78.416 111.297 77.18 109.533 77.18C108.885 77.18 108.309 77.36 107.853 77.708L108.429 75.404H111.921V74.324H107.577L106.521 78.776L107.517 79.028C107.913 78.536 108.585 78.188 109.317 78.188C110.529 78.188 111.237 79.016 111.237 80.132C111.237 81.308 110.481 82.088 109.305 82.088C108.201 82.088 107.517 81.404 107.517 80.288H106.353C106.353 82.016 107.505 83.144 109.281 83.144ZM113.431 80.588C113.431 82.124 114.691 83.144 116.623 83.144C118.543 83.144 119.815 82.124 119.815 80.6C119.815 79.532 119.191 78.668 118.219 78.356C119.035 78.032 119.491 77.348 119.491 76.46C119.491 75.092 118.339 74.168 116.635 74.168C114.907 74.168 113.743 75.092 113.743 76.448C113.743 77.324 114.187 78.008 115.003 78.356C114.043 78.704 113.431 79.544 113.431 80.588ZM114.823 76.52C114.823 75.716 115.531 75.188 116.611 75.188C117.703 75.188 118.387 75.716 118.387 76.544C118.387 77.384 117.703 77.924 116.611 77.924C115.531 77.924 114.823 77.372 114.823 76.52ZM114.583 80.504C114.583 79.544 115.375 78.932 116.611 78.932C117.859 78.932 118.651 79.544 118.651 80.504C118.651 81.476 117.847 82.1 116.623 82.1C115.387 82.1 114.583 81.476 114.583 80.504ZM126.007 80.252C126.895 79.04 127.207 78.308 127.207 77.288C127.207 75.524 125.815 74.168 124.015 74.168C122.227 74.168 120.859 75.476 120.859 77.276C120.859 79.004 122.071 80.3 123.871 80.3C124.171 80.3 124.483 80.24 124.783 80.12L122.611 83H123.979L126.007 80.252ZM126.007 77.276C126.007 78.464 125.191 79.304 124.015 79.304C122.863 79.304 122.047 78.464 122.047 77.276C122.047 76.088 122.863 75.224 124.015 75.224C125.191 75.224 126.007 76.088 126.007 77.276ZM129.29 77.072C128.402 78.284 128.09 79.004 128.09 80.036C128.09 81.788 129.482 83.144 131.282 83.144C133.07 83.144 134.438 81.848 134.438 80.036C134.438 78.32 133.226 77.024 131.426 77.024C131.126 77.024 130.814 77.084 130.514 77.204L132.686 74.324H131.318L129.29 77.072ZM129.29 80.048C129.29 78.86 130.106 78.02 131.282 78.02C132.434 78.02 133.25 78.86 133.25 80.048C133.25 81.236 132.434 82.088 131.282 82.088C130.106 82.088 129.29 81.236 129.29 80.048ZM138.414 83.144C140.286 83.144 141.57 81.884 141.57 80.084C141.57 78.416 140.43 77.18 138.666 77.18C138.018 77.18 137.442 77.36 136.986 77.708L137.562 75.404H141.054V74.324H136.71L135.654 78.776L136.65 79.028C137.046 78.536 137.718 78.188 138.45 78.188C139.662 78.188 140.37 79.016 140.37 80.132C140.37 81.308 139.614 82.088 138.438 82.088C137.334 82.088 136.65 81.404 136.65 80.288H135.486C135.486 82.016 136.638 83.144 138.414 83.144Z" fill="white"/>
<path d="M169.529 82.988V81.896H165.521L167.321 80.336C168.857 79.004 169.469 78.128 169.469 76.892C169.469 75.224 168.353 74.168 166.613 74.168C164.849 74.168 163.673 75.38 163.637 77.24H164.813C164.837 76.004 165.533 75.224 166.601 75.224C167.645 75.224 168.269 75.872 168.269 76.964C168.269 77.888 167.873 78.476 166.469 79.688L163.673 82.1V83L169.529 82.988ZM170.587 80.588C170.587 82.124 171.847 83.144 173.779 83.144C175.699 83.144 176.971 82.124 176.971 80.6C176.971 79.532 176.347 78.668 175.375 78.356C176.191 78.032 176.647 77.348 176.647 76.46C176.647 75.092 175.495 74.168 173.791 74.168C172.063 74.168 170.899 75.092 170.899 76.448C170.899 77.324 171.343 78.008 172.159 78.356C171.199 78.704 170.587 79.544 170.587 80.588ZM171.979 76.52C171.979 75.716 172.687 75.188 173.767 75.188C174.859 75.188 175.543 75.716 175.543 76.544C175.543 77.384 174.859 77.924 173.767 77.924C172.687 77.924 171.979 77.372 171.979 76.52ZM171.739 80.504C171.739 79.544 172.531 78.932 173.767 78.932C175.015 78.932 175.807 79.544 175.807 80.504C175.807 81.476 175.003 82.1 173.779 82.1C172.543 82.1 171.739 81.476 171.739 80.504ZM179.903 82.532C179.903 81.872 179.495 81.452 178.991 81.452C178.511 81.452 178.187 81.8 178.187 82.28C178.187 82.724 178.523 83.012 178.919 83.012C179.063 83.012 179.159 82.988 179.243 82.94C179.243 83.312 178.895 83.636 178.403 83.72V84.224C179.255 84.116 179.903 83.396 179.903 82.532ZM180.807 78.668C180.807 81.368 182.139 83.156 184.383 83.156C186.615 83.156 187.947 81.368 187.947 78.668C187.947 75.98 186.555 74.156 184.383 74.156C182.199 74.156 180.807 75.98 180.807 78.668ZM181.971 78.668C181.971 76.508 182.859 75.212 184.383 75.212C185.907 75.212 186.783 76.508 186.783 78.668C186.783 80.804 185.907 82.1 184.383 82.1C182.859 82.1 181.971 80.804 181.971 78.668ZM194.947 82.988V81.896H190.939L192.739 80.336C194.275 79.004 194.887 78.128 194.887 76.892C194.887 75.224 193.771 74.168 192.031 74.168C190.267 74.168 189.091 75.38 189.055 77.24H190.231C190.255 76.004 190.951 75.224 192.019 75.224C193.063 75.224 193.687 75.872 193.687 76.964C193.687 77.888 193.291 78.476 191.887 79.688L189.091 82.1V83L194.947 82.988ZM196.029 78.668C196.029 81.368 197.361 83.156 199.605 83.156C201.837 83.156 203.169 81.368 203.169 78.668C203.169 75.98 201.777 74.156 199.605 74.156C197.421 74.156 196.029 75.98 196.029 78.668ZM197.193 78.668C197.193 76.508 198.081 75.212 199.605 75.212C201.129 75.212 202.005 76.508 202.005 78.668C202.005 80.804 201.129 82.1 199.605 82.1C198.081 82.1 197.193 80.804 197.193 78.668ZM204.926 83.144C205.382 83.144 205.778 82.76 205.778 82.304C205.778 81.836 205.382 81.452 204.926 81.452C204.458 81.452 204.062 81.836 204.062 82.304C204.062 82.76 204.458 83.144 204.926 83.144ZM211.91 80.252C212.798 79.04 213.11 78.308 213.11 77.288C213.11 75.524 211.718 74.168 209.918 74.168C208.13 74.168 206.762 75.476 206.762 77.276C206.762 79.004 207.974 80.3 209.774 80.3C210.074 80.3 210.386 80.24 210.686 80.12L208.514 83H209.882L211.91 80.252ZM211.91 77.276C211.91 78.464 211.094 79.304 209.918 79.304C208.766 79.304 207.95 78.464 207.95 77.276C207.95 76.088 208.766 75.224 209.918 75.224C211.094 75.224 211.91 76.088 211.91 77.276ZM214.064 80.588C214.064 82.124 215.324 83.144 217.256 83.144C219.176 83.144 220.448 82.124 220.448 80.6C220.448 79.532 219.824 78.668 218.852 78.356C219.668 78.032 220.124 77.348 220.124 76.46C220.124 75.092 218.972 74.168 217.268 74.168C215.54 74.168 214.376 75.092 214.376 76.448C214.376 77.324 214.82 78.008 215.636 78.356C214.676 78.704 214.064 79.544 214.064 80.588ZM215.456 76.52C215.456 75.716 216.164 75.188 217.244 75.188C218.336 75.188 219.02 75.716 219.02 76.544C219.02 77.384 218.336 77.924 217.244 77.924C216.164 77.924 215.456 77.372 215.456 76.52ZM215.216 80.504C215.216 79.544 216.008 78.932 217.244 78.932C218.492 78.932 219.284 79.544 219.284 80.504C219.284 81.476 218.48 82.1 217.256 82.1C216.02 82.1 215.216 81.476 215.216 80.504Z" fill="white"/>
<g opacity="0.15">
<rect width="128" height="28" transform="translate(110 64)" fill="#25C26E"/>
</g>
<path d="M20.072 110.512C21.452 110.512 22.172 111.208 22.172 112.252C22.172 113.368 21.44 114.088 20.312 114.088C19.22 114.088 18.524 113.428 18.524 112.3H17.36C17.36 114.1 18.584 115.144 20.288 115.144C22.052 115.144 23.372 114.028 23.372 112.276C23.372 110.716 22.256 109.72 20.78 109.54L23.156 107.272V106.324H17.768V107.368H21.668L19.208 109.732V110.512H20.072ZM25.5123 109.072C24.6243 110.284 24.3123 111.004 24.3123 112.036C24.3123 113.788 25.7043 115.144 27.5043 115.144C29.2923 115.144 30.6603 113.848 30.6603 112.036C30.6603 110.32 29.4483 109.024 27.6483 109.024C27.3483 109.024 27.0363 109.084 26.7363 109.204L28.9083 106.324H27.5403L25.5123 109.072ZM25.5123 112.048C25.5123 110.86 26.3283 110.02 27.5043 110.02C28.6563 110.02 29.4723 110.86 29.4723 112.048C29.4723 113.236 28.6563 114.088 27.5043 114.088C26.3283 114.088 25.5123 113.236 25.5123 112.048ZM36.5619 112.252C37.4499 111.04 37.7619 110.308 37.7619 109.288C37.7619 107.524 36.3699 106.168 34.5699 106.168C32.7819 106.168 31.4139 107.476 31.4139 109.276C31.4139 111.004 32.6259 112.3 34.4259 112.3C34.7259 112.3 35.0379 112.24 35.3379 112.12L33.1659 115H34.5339L36.5619 112.252ZM36.5619 109.276C36.5619 110.464 35.7459 111.304 34.5699 111.304C33.4179 111.304 32.6019 110.464 32.6019 109.276C32.6019 108.088 33.4179 107.224 34.5699 107.224C35.7459 107.224 36.5619 108.088 36.5619 109.276ZM44.6189 114.988V113.896H40.6109L42.4109 112.336C43.9469 111.004 44.5589 110.128 44.5589 108.892C44.5589 107.224 43.4429 106.168 41.7029 106.168C39.9389 106.168 38.7629 107.38 38.7269 109.24H39.9029C39.9269 108.004 40.6229 107.224 41.6909 107.224C42.7349 107.224 43.3589 107.872 43.3589 108.964C43.3589 109.888 42.9629 110.476 41.5589 111.688L38.7629 114.1V115L44.6189 114.988ZM45.7013 110.668C45.7013 113.368 47.0333 115.156 49.2773 115.156C51.5093 115.156 52.8413 113.368 52.8413 110.668C52.8413 107.98 51.4493 106.156 49.2773 106.156C47.0933 106.156 45.7013 107.98 45.7013 110.668ZM46.8653 110.668C46.8653 108.508 47.7533 107.212 49.2773 107.212C50.8013 107.212 51.6773 108.508 51.6773 110.668C51.6773 112.804 50.8013 114.1 49.2773 114.1C47.7533 114.1 46.8653 112.804 46.8653 110.668ZM54.5974 115.144C55.0534 115.144 55.4494 114.76 55.4494 114.304C55.4494 113.836 55.0534 113.452 54.5974 113.452C54.1294 113.452 53.7334 113.836 53.7334 114.304C53.7334 114.76 54.1294 115.144 54.5974 115.144ZM57.5292 107.38V115H58.6572V106.324H55.7052V107.38H57.5292ZM66.0643 114.988V113.896H62.0563L63.8563 112.336C65.3923 111.004 66.0043 110.128 66.0043 108.892C66.0043 107.224 64.8883 106.168 63.1483 106.168C61.3843 106.168 60.2083 107.38 60.1723 109.24H61.3483C61.3723 108.004 62.0683 107.224 63.1363 107.224C64.1803 107.224 64.8043 107.872 64.8043 108.964C64.8043 109.888 64.4083 110.476 63.0043 111.688L60.2083 114.1V115L66.0643 114.988Z" fill="#25C26E"/>
<path d="M89.5372 110.668C89.5372 113.368 90.8692 115.156 93.1132 115.156C95.3452 115.156 96.6772 113.368 96.6772 110.668C96.6772 107.98 95.2852 106.156 93.1132 106.156C90.9292 106.156 89.5372 107.98 89.5372 110.668ZM90.7012 110.668C90.7012 108.508 91.5892 107.212 93.1132 107.212C94.6372 107.212 95.5132 108.508 95.5132 110.668C95.5132 112.804 94.6372 114.1 93.1132 114.1C91.5892 114.1 90.7012 112.804 90.7012 110.668ZM98.4333 115.144C98.8893 115.144 99.2853 114.76 99.2853 114.304C99.2853 113.836 98.8893 113.452 98.4333 113.452C97.9653 113.452 97.5693 113.836 97.5693 114.304C97.5693 114.76 97.9653 115.144 98.4333 115.144ZM99.8265 106.324V107.404H104.698L101.374 115H102.598L105.886 107.404V106.324H99.8265ZM109.281 115.144C111.153 115.144 112.437 113.884 112.437 112.084C112.437 110.416 111.297 109.18 109.533 109.18C108.885 109.18 108.309 109.36 107.853 109.708L108.429 107.404H111.921V106.324H107.577L106.521 110.776L107.517 111.028C107.913 110.536 108.585 110.188 109.317 110.188C110.529 110.188 111.237 111.016 111.237 112.132C111.237 113.308 110.481 114.088 109.305 114.088C108.201 114.088 107.517 113.404 107.517 112.288H106.353C106.353 114.016 107.505 115.144 109.281 115.144ZM113.431 112.588C113.431 114.124 114.691 115.144 116.623 115.144C118.543 115.144 119.815 114.124 119.815 112.6C119.815 111.532 119.191 110.668 118.219 110.356C119.035 110.032 119.491 109.348 119.491 108.46C119.491 107.092 118.339 106.168 116.635 106.168C114.907 106.168 113.743 107.092 113.743 108.448C113.743 109.324 114.187 110.008 115.003 110.356C114.043 110.704 113.431 111.544 113.431 112.588ZM114.823 108.52C114.823 107.716 115.531 107.188 116.611 107.188C117.703 107.188 118.387 107.716 118.387 108.544C118.387 109.384 117.703 109.924 116.611 109.924C115.531 109.924 114.823 109.372 114.823 108.52ZM114.583 112.504C114.583 111.544 115.375 110.932 116.611 110.932C117.859 110.932 118.651 111.544 118.651 112.504C118.651 113.476 117.847 114.1 116.623 114.1C115.387 114.1 114.583 113.476 114.583 112.504ZM126.007 112.252C126.895 111.04 127.207 110.308 127.207 109.288C127.207 107.524 125.815 106.168 124.015 106.168C122.227 106.168 120.859 107.476 120.859 109.276C120.859 111.004 122.071 112.3 123.871 112.3C124.171 112.3 124.483 112.24 124.783 112.12L122.611 115H123.979L126.007 112.252ZM126.007 109.276C126.007 110.464 125.191 111.304 124.015 111.304C122.863 111.304 122.047 110.464 122.047 109.276C122.047 108.088 122.863 107.224 124.015 107.224C125.191 107.224 126.007 108.088 126.007 109.276ZM129.29 109.072C128.402 110.284 128.09 111.004 128.09 112.036C128.09 113.788 129.482 115.144 131.282 115.144C133.07 115.144 134.438 113.848 134.438 112.036C134.438 110.32 133.226 109.024 131.426 109.024C131.126 109.024 130.814 109.084 130.514 109.204L132.686 106.324H131.318L129.29 109.072ZM129.29 112.048C129.29 110.86 130.106 110.02 131.282 110.02C132.434 110.02 133.25 110.86 133.25 112.048C133.25 113.236 132.434 114.088 131.282 114.088C130.106 114.088 129.29 113.236 129.29 112.048ZM138.414 115.144C140.286 115.144 141.57 113.884 141.57 112.084C141.57 110.416 140.43 109.18 138.666 109.18C138.018 109.18 137.442 109.36 136.986 109.708L137.562 107.404H141.054V106.324H136.71L135.654 110.776L136.65 111.028C137.046 110.536 137.718 110.188 138.45 110.188C139.662 110.188 140.37 111.016 140.37 112.132C140.37 113.308 139.614 114.088 138.438 114.088C137.334 114.088 136.65 113.404 136.65 112.288H135.486C135.486 114.016 136.638 115.144 138.414 115.144Z" fill="white"/>
<path d="M169.529 114.988V113.896H165.521L167.321 112.336C168.857 111.004 169.469 110.128 169.469 108.892C169.469 107.224 168.353 106.168 166.613 106.168C164.849 106.168 163.673 107.38 163.637 109.24H164.813C164.837 108.004 165.533 107.224 166.601 107.224C167.645 107.224 168.269 107.872 168.269 108.964C168.269 109.888 167.873 110.476 166.469 111.688L163.673 114.1V115L169.529 114.988ZM170.587 112.588C170.587 114.124 171.847 115.144 173.779 115.144C175.699 115.144 176.971 114.124 176.971 112.6C176.971 111.532 176.347 110.668 175.375 110.356C176.191 110.032 176.647 109.348 176.647 108.46C176.647 107.092 175.495 106.168 173.791 106.168C172.063 106.168 170.899 107.092 170.899 108.448C170.899 109.324 171.343 110.008 172.159 110.356C171.199 110.704 170.587 111.544 170.587 112.588ZM171.979 108.52C171.979 107.716 172.687 107.188 173.767 107.188C174.859 107.188 175.543 107.716 175.543 108.544C175.543 109.384 174.859 109.924 173.767 109.924C172.687 109.924 171.979 109.372 171.979 108.52ZM171.739 112.504C171.739 111.544 172.531 110.932 173.767 110.932C175.015 110.932 175.807 111.544 175.807 112.504C175.807 113.476 175.003 114.1 173.779 114.1C172.543 114.1 171.739 113.476 171.739 112.504ZM179.903 114.532C179.903 113.872 179.495 113.452 178.991 113.452C178.511 113.452 178.187 113.8 178.187 114.28C178.187 114.724 178.523 115.012 178.919 115.012C179.063 115.012 179.159 114.988 179.243 114.94C179.243 115.312 178.895 115.636 178.403 115.72V116.224C179.255 116.116 179.903 115.396 179.903 114.532ZM180.807 110.668C180.807 113.368 182.139 115.156 184.383 115.156C186.615 115.156 187.947 113.368 187.947 110.668C187.947 107.98 186.555 106.156 184.383 106.156C182.199 106.156 180.807 107.98 180.807 110.668ZM181.971 110.668C181.971 108.508 182.859 107.212 184.383 107.212C185.907 107.212 186.783 108.508 186.783 110.668C186.783 112.804 185.907 114.1 184.383 114.1C182.859 114.1 181.971 112.804 181.971 110.668ZM194.947 114.988V113.896H190.939L192.739 112.336C194.275 111.004 194.887 110.128 194.887 108.892C194.887 107.224 193.771 106.168 192.031 106.168C190.267 106.168 189.091 107.38 189.055 109.24H190.231C190.255 108.004 190.951 107.224 192.019 107.224C193.063 107.224 193.687 107.872 193.687 108.964C193.687 109.888 193.291 110.476 191.887 111.688L189.091 114.1V115L194.947 114.988ZM196.029 110.668C196.029 113.368 197.361 115.156 199.605 115.156C201.837 115.156 203.169 113.368 203.169 110.668C203.169 107.98 201.777 106.156 199.605 106.156C197.421 106.156 196.029 107.98 196.029 110.668ZM197.193 110.668C197.193 108.508 198.081 107.212 199.605 107.212C201.129 107.212 202.005 108.508 202.005 110.668C202.005 112.804 201.129 114.1 199.605 114.1C198.081 114.1 197.193 112.804 197.193 110.668ZM204.926 115.144C205.382 115.144 205.778 114.76 205.778 114.304C205.778 113.836 205.382 113.452 204.926 113.452C204.458 113.452 204.062 113.836 204.062 114.304C204.062 114.76 204.458 115.144 204.926 115.144ZM211.91 112.252C212.798 111.04 213.11 110.308 213.11 109.288C213.11 107.524 211.718 106.168 209.918 106.168C208.13 106.168 206.762 107.476 206.762 109.276C206.762 111.004 207.974 112.3 209.774 112.3C210.074 112.3 210.386 112.24 210.686 112.12L208.514 115H209.882L211.91 112.252ZM211.91 109.276C211.91 110.464 211.094 111.304 209.918 111.304C208.766 111.304 207.95 110.464 207.95 109.276C207.95 108.088 208.766 107.224 209.918 107.224C211.094 107.224 211.91 108.088 211.91 109.276ZM214.064 112.588C214.064 114.124 215.324 115.144 217.256 115.144C219.176 115.144 220.448 114.124 220.448 112.6C220.448 111.532 219.824 110.668 218.852 110.356C219.668 110.032 220.124 109.348 220.124 108.46C220.124 107.092 218.972 106.168 217.268 106.168C215.54 106.168 214.376 107.092 214.376 108.448C214.376 109.324 214.82 110.008 215.636 110.356C214.676 110.704 214.064 111.544 214.064 112.588ZM215.456 108.52C215.456 107.716 216.164 107.188 217.244 107.188C218.336 107.188 219.02 107.716 219.02 108.544C219.02 109.384 218.336 109.924 217.244 109.924C216.164 109.924 215.456 109.372 215.456 108.52ZM215.216 112.504C215.216 111.544 216.008 110.932 217.244 110.932C218.492 110.932 219.284 111.544 219.284 112.504C219.284 113.476 218.48 114.1 217.256 114.1C216.02 114.1 215.216 113.476 215.216 112.504Z" fill="white"/>
<g opacity="0.15">
<rect width="1" height="28" transform="translate(237 96)" fill="#25C26E"/>
</g>
<path d="M20.072 142.512C21.452 142.512 22.172 143.208 22.172 144.252C22.172 145.368 21.44 146.088 20.312 146.088C19.22 146.088 18.524 145.428 18.524 144.3H17.36C17.36 146.1 18.584 147.144 20.288 147.144C22.052 147.144 23.372 146.028 23.372 144.276C23.372 142.716 22.256 141.72 20.78 141.54L23.156 139.272V138.324H17.768V139.368H21.668L19.208 141.732V142.512H20.072ZM25.5123 141.072C24.6243 142.284 24.3123 143.004 24.3123 144.036C24.3123 145.788 25.7043 147.144 27.5043 147.144C29.2923 147.144 30.6603 145.848 30.6603 144.036C30.6603 142.32 29.4483 141.024 27.6483 141.024C27.3483 141.024 27.0363 141.084 26.7363 141.204L28.9083 138.324H27.5403L25.5123 141.072ZM25.5123 144.048C25.5123 142.86 26.3283 142.02 27.5043 142.02C28.6563 142.02 29.4723 142.86 29.4723 144.048C29.4723 145.236 28.6563 146.088 27.5043 146.088C26.3283 146.088 25.5123 145.236 25.5123 144.048ZM36.5619 144.252C37.4499 143.04 37.7619 142.308 37.7619 141.288C37.7619 139.524 36.3699 138.168 34.5699 138.168C32.7819 138.168 31.4139 139.476 31.4139 141.276C31.4139 143.004 32.6259 144.3 34.4259 144.3C34.7259 144.3 35.0379 144.24 35.3379 144.12L33.1659 147H34.5339L36.5619 144.252ZM36.5619 141.276C36.5619 142.464 35.7459 143.304 34.5699 143.304C33.4179 143.304 32.6019 142.464 32.6019 141.276C32.6019 140.088 33.4179 139.224 34.5699 139.224C35.7459 139.224 36.5619 140.088 36.5619 141.276ZM44.6189 146.988V145.896H40.6109L42.4109 144.336C43.9469 143.004 44.5589 142.128 44.5589 140.892C44.5589 139.224 43.4429 138.168 41.7029 138.168C39.9389 138.168 38.7629 139.38 38.7269 141.24H39.9029C39.9269 140.004 40.6229 139.224 41.6909 139.224C42.7349 139.224 43.3589 139.872 43.3589 140.964C43.3589 141.888 42.9629 142.476 41.5589 143.688L38.7629 146.1V147L44.6189 146.988ZM45.7013 142.668C45.7013 145.368 47.0333 147.156 49.2773 147.156C51.5093 147.156 52.8413 145.368 52.8413 142.668C52.8413 139.98 51.4493 138.156 49.2773 138.156C47.0933 138.156 45.7013 139.98 45.7013 142.668ZM46.8653 142.668C46.8653 140.508 47.7533 139.212 49.2773 139.212C50.8013 139.212 51.6773 140.508 51.6773 142.668C51.6773 144.804 50.8013 146.1 49.2773 146.1C47.7533 146.1 46.8653 144.804 46.8653 142.668ZM54.5974 147.144C55.0534 147.144 55.4494 146.76 55.4494 146.304C55.4494 145.836 55.0534 145.452 54.5974 145.452C54.1294 145.452 53.7334 145.836 53.7334 146.304C53.7334 146.76 54.1294 147.144 54.5974 147.144ZM57.5292 139.38V147H58.6572V138.324H55.7052V139.38H57.5292ZM66.0643 146.988V145.896H62.0563L63.8563 144.336C65.3923 143.004 66.0043 142.128 66.0043 140.892C66.0043 139.224 64.8883 138.168 63.1483 138.168C61.3843 138.168 60.2083 139.38 60.1723 141.24H61.3483C61.3723 140.004 62.0683 139.224 63.1363 139.224C64.1803 139.224 64.8043 139.872 64.8043 140.964C64.8043 141.888 64.4083 142.476 63.0043 143.688L60.2083 146.1V147L66.0643 146.988Z" fill="#25C26E"/>
<path d="M89.5372 142.668C89.5372 145.368 90.8692 147.156 93.1132 147.156C95.3452 147.156 96.6772 145.368 96.6772 142.668C96.6772 139.98 95.2852 138.156 93.1132 138.156C90.9292 138.156 89.5372 139.98 89.5372 142.668ZM90.7012 142.668C90.7012 140.508 91.5892 139.212 93.1132 139.212C94.6372 139.212 95.5132 140.508 95.5132 142.668C95.5132 144.804 94.6372 146.1 93.1132 146.1C91.5892 146.1 90.7012 144.804 90.7012 142.668ZM98.4333 147.144C98.8893 147.144 99.2853 146.76 99.2853 146.304C99.2853 145.836 98.8893 145.452 98.4333 145.452C97.9653 145.452 97.5693 145.836 97.5693 146.304C97.5693 146.76 97.9653 147.144 98.4333 147.144ZM99.8265 138.324V139.404H104.698L101.374 147H102.598L105.886 139.404V138.324H99.8265ZM109.281 147.144C111.153 147.144 112.437 145.884 112.437 144.084C112.437 142.416 111.297 141.18 109.533 141.18C108.885 141.18 108.309 141.36 107.853 141.708L108.429 139.404H111.921V138.324H107.577L106.521 142.776L107.517 143.028C107.913 142.536 108.585 142.188 109.317 142.188C110.529 142.188 111.237 143.016 111.237 144.132C111.237 145.308 110.481 146.088 109.305 146.088C108.201 146.088 107.517 145.404 107.517 144.288H106.353C106.353 146.016 107.505 147.144 109.281 147.144ZM113.431 144.588C113.431 146.124 114.691 147.144 116.623 147.144C118.543 147.144 119.815 146.124 119.815 144.6C119.815 143.532 119.191 142.668 118.219 142.356C119.035 142.032 119.491 141.348 119.491 140.46C119.491 139.092 118.339 138.168 116.635 138.168C114.907 138.168 113.743 139.092 113.743 140.448C113.743 141.324 114.187 142.008 115.003 142.356C114.043 142.704 113.431 143.544 113.431 144.588ZM114.823 140.52C114.823 139.716 115.531 139.188 116.611 139.188C117.703 139.188 118.387 139.716 118.387 140.544C118.387 141.384 117.703 141.924 116.611 141.924C115.531 141.924 114.823 141.372 114.823 140.52ZM114.583 144.504C114.583 143.544 115.375 142.932 116.611 142.932C117.859 142.932 118.651 143.544 118.651 144.504C118.651 145.476 117.847 146.1 116.623 146.1C115.387 146.1 114.583 145.476 114.583 144.504ZM126.007 144.252C126.895 143.04 127.207 142.308 127.207 141.288C127.207 139.524 125.815 138.168 124.015 138.168C122.227 138.168 120.859 139.476 120.859 141.276C120.859 143.004 122.071 144.3 123.871 144.3C124.171 144.3 124.483 144.24 124.783 144.12L122.611 147H123.979L126.007 144.252ZM126.007 141.276C126.007 142.464 125.191 143.304 124.015 143.304C122.863 143.304 122.047 142.464 122.047 141.276C122.047 140.088 122.863 139.224 124.015 139.224C125.191 139.224 126.007 140.088 126.007 141.276ZM129.29 141.072C128.402 142.284 128.09 143.004 128.09 144.036C128.09 145.788 129.482 147.144 131.282 147.144C133.07 147.144 134.438 145.848 134.438 144.036C134.438 142.32 133.226 141.024 131.426 141.024C131.126 141.024 130.814 141.084 130.514 141.204L132.686 138.324H131.318L129.29 141.072ZM129.29 144.048C129.29 142.86 130.106 142.02 131.282 142.02C132.434 142.02 133.25 142.86 133.25 144.048C133.25 145.236 132.434 146.088 131.282 146.088C130.106 146.088 129.29 145.236 129.29 144.048ZM138.414 147.144C140.286 147.144 141.57 145.884 141.57 144.084C141.57 142.416 140.43 141.18 138.666 141.18C138.018 141.18 137.442 141.36 136.986 141.708L137.562 139.404H141.054V138.324H136.71L135.654 142.776L136.65 143.028C137.046 142.536 137.718 142.188 138.45 142.188C139.662 142.188 140.37 143.016 140.37 144.132C140.37 145.308 139.614 146.088 138.438 146.088C137.334 146.088 136.65 145.404 136.65 144.288H135.486C135.486 146.016 136.638 147.144 138.414 147.144Z" fill="white"/>
<path d="M169.529 146.988V145.896H165.521L167.321 144.336C168.857 143.004 169.469 142.128 169.469 140.892C169.469 139.224 168.353 138.168 166.613 138.168C164.849 138.168 163.673 139.38 163.637 141.24H164.813C164.837 140.004 165.533 139.224 166.601 139.224C167.645 139.224 168.269 139.872 168.269 140.964C168.269 141.888 167.873 142.476 166.469 143.688L163.673 146.1V147L169.529 146.988ZM170.587 144.588C170.587 146.124 171.847 147.144 173.779 147.144C175.699 147.144 176.971 146.124 176.971 144.6C176.971 143.532 176.347 142.668 175.375 142.356C176.191 142.032 176.647 141.348 176.647 140.46C176.647 139.092 175.495 138.168 173.791 138.168C172.063 138.168 170.899 139.092 170.899 140.448C170.899 141.324 171.343 142.008 172.159 142.356C171.199 142.704 170.587 143.544 170.587 144.588ZM171.979 140.52C171.979 139.716 172.687 139.188 173.767 139.188C174.859 139.188 175.543 139.716 175.543 140.544C175.543 141.384 174.859 141.924 173.767 141.924C172.687 141.924 171.979 141.372 171.979 140.52ZM171.739 144.504C171.739 143.544 172.531 142.932 173.767 142.932C175.015 142.932 175.807 143.544 175.807 144.504C175.807 145.476 175.003 146.1 173.779 146.1C172.543 146.1 171.739 145.476 171.739 144.504ZM179.903 146.532C179.903 145.872 179.495 145.452 178.991 145.452C178.511 145.452 178.187 145.8 178.187 146.28C178.187 146.724 178.523 147.012 178.919 147.012C179.063 147.012 179.159 146.988 179.243 146.94C179.243 147.312 178.895 147.636 178.403 147.72V148.224C179.255 148.116 179.903 147.396 179.903 146.532ZM180.807 142.668C180.807 145.368 182.139 147.156 184.383 147.156C186.615 147.156 187.947 145.368 187.947 142.668C187.947 139.98 186.555 138.156 184.383 138.156C182.199 138.156 180.807 139.98 180.807 142.668ZM181.971 142.668C181.971 140.508 182.859 139.212 184.383 139.212C185.907 139.212 186.783 140.508 186.783 142.668C186.783 144.804 185.907 146.1 184.383 146.1C182.859 146.1 181.971 144.804 181.971 142.668ZM194.947 146.988V145.896H190.939L192.739 144.336C194.275 143.004 194.887 142.128 194.887 140.892C194.887 139.224 193.771 138.168 192.031 138.168C190.267 138.168 189.091 139.38 189.055 141.24H190.231C190.255 140.004 190.951 139.224 192.019 139.224C193.063 139.224 193.687 139.872 193.687 140.964C193.687 141.888 193.291 142.476 191.887 143.688L189.091 146.1V147L194.947 146.988ZM196.029 142.668C196.029 145.368 197.361 147.156 199.605 147.156C201.837 147.156 203.169 145.368 203.169 142.668C203.169 139.98 201.777 138.156 199.605 138.156C197.421 138.156 196.029 139.98 196.029 142.668ZM197.193 142.668C197.193 140.508 198.081 139.212 199.605 139.212C201.129 139.212 202.005 140.508 202.005 142.668C202.005 144.804 201.129 146.1 199.605 146.1C198.081 146.1 197.193 144.804 197.193 142.668ZM204.926 147.144C205.382 147.144 205.778 146.76 205.778 146.304C205.778 145.836 205.382 145.452 204.926 145.452C204.458 145.452 204.062 145.836 204.062 146.304C204.062 146.76 204.458 147.144 204.926 147.144ZM211.91 144.252C212.798 143.04 213.11 142.308 213.11 141.288C213.11 139.524 211.718 138.168 209.918 138.168C208.13 138.168 206.762 139.476 206.762 141.276C206.762 143.004 207.974 144.3 209.774 144.3C210.074 144.3 210.386 144.24 210.686 144.12L208.514 147H209.882L211.91 144.252ZM211.91 141.276C211.91 142.464 211.094 143.304 209.918 143.304C208.766 143.304 207.95 142.464 207.95 141.276C207.95 140.088 208.766 139.224 209.918 139.224C211.094 139.224 211.91 140.088 211.91 141.276ZM214.064 144.588C214.064 146.124 215.324 147.144 217.256 147.144C219.176 147.144 220.448 146.124 220.448 144.6C220.448 143.532 219.824 142.668 218.852 142.356C219.668 142.032 220.124 141.348 220.124 140.46C220.124 139.092 218.972 138.168 217.268 138.168C215.54 138.168 214.376 139.092 214.376 140.448C214.376 141.324 214.82 142.008 215.636 142.356C214.676 142.704 214.064 143.544 214.064 144.588ZM215.456 140.52C215.456 139.716 216.164 139.188 217.244 139.188C218.336 139.188 219.02 139.716 219.02 140.544C219.02 141.384 218.336 141.924 217.244 141.924C216.164 141.924 215.456 141.372 215.456 140.52ZM215.216 144.504C215.216 143.544 216.008 142.932 217.244 142.932C218.492 142.932 219.284 143.544 219.284 144.504C219.284 145.476 218.48 146.1 217.256 146.1C216.02 146.1 215.216 145.476 215.216 144.504Z" fill="white"/>
<g opacity="0.15">
<rect width="160" height="28" transform="translate(78 128)" fill="#25C26E"/>
</g>
<path d="M20.072 174.512C21.452 174.512 22.172 175.208 22.172 176.252C22.172 177.368 21.44 178.088 20.312 178.088C19.22 178.088 18.524 177.428 18.524 176.3H17.36C17.36 178.1 18.584 179.144 20.288 179.144C22.052 179.144 23.372 178.028 23.372 176.276C23.372 174.716 22.256 173.72 20.78 173.54L23.156 171.272V170.324H17.768V171.368H21.668L19.208 173.732V174.512H20.072ZM25.5123 173.072C24.6243 174.284 24.3123 175.004 24.3123 176.036C24.3123 177.788 25.7043 179.144 27.5043 179.144C29.2923 179.144 30.6603 177.848 30.6603 176.036C30.6603 174.32 29.4483 173.024 27.6483 173.024C27.3483 173.024 27.0363 173.084 26.7363 173.204L28.9083 170.324H27.5403L25.5123 173.072ZM25.5123 176.048C25.5123 174.86 26.3283 174.02 27.5043 174.02C28.6563 174.02 29.4723 174.86 29.4723 176.048C29.4723 177.236 28.6563 178.088 27.5043 178.088C26.3283 178.088 25.5123 177.236 25.5123 176.048ZM36.5619 176.252C37.4499 175.04 37.7619 174.308 37.7619 173.288C37.7619 171.524 36.3699 170.168 34.5699 170.168C32.7819 170.168 31.4139 171.476 31.4139 173.276C31.4139 175.004 32.6259 176.3 34.4259 176.3C34.7259 176.3 35.0379 176.24 35.3379 176.12L33.1659 179H34.5339L36.5619 176.252ZM36.5619 173.276C36.5619 174.464 35.7459 175.304 34.5699 175.304C33.4179 175.304 32.6019 174.464 32.6019 173.276C32.6019 172.088 33.4179 171.224 34.5699 171.224C35.7459 171.224 36.5619 172.088 36.5619 173.276ZM44.6189 178.988V177.896H40.6109L42.4109 176.336C43.9469 175.004 44.5589 174.128 44.5589 172.892C44.5589 171.224 43.4429 170.168 41.7029 170.168C39.9389 170.168 38.7629 171.38 38.7269 173.24H39.9029C39.9269 172.004 40.6229 171.224 41.6909 171.224C42.7349 171.224 43.3589 171.872 43.3589 172.964C43.3589 173.888 42.9629 174.476 41.5589 175.688L38.7629 178.1V179L44.6189 178.988ZM45.7013 174.668C45.7013 177.368 47.0333 179.156 49.2773 179.156C51.5093 179.156 52.8413 177.368 52.8413 174.668C52.8413 171.98 51.4493 170.156 49.2773 170.156C47.0933 170.156 45.7013 171.98 45.7013 174.668ZM46.8653 174.668C46.8653 172.508 47.7533 171.212 49.2773 171.212C50.8013 171.212 51.6773 172.508 51.6773 174.668C51.6773 176.804 50.8013 178.1 49.2773 178.1C47.7533 178.1 46.8653 176.804 46.8653 174.668ZM54.5974 179.144C55.0534 179.144 55.4494 178.76 55.4494 178.304C55.4494 177.836 55.0534 177.452 54.5974 177.452C54.1294 177.452 53.7334 177.836 53.7334 178.304C53.7334 178.76 54.1294 179.144 54.5974 179.144ZM57.5292 171.38V179H58.6572V170.324H55.7052V171.38H57.5292ZM66.0643 178.988V177.896H62.0563L63.8563 176.336C65.3923 175.004 66.0043 174.128 66.0043 172.892C66.0043 171.224 64.8883 170.168 63.1483 170.168C61.3843 170.168 60.2083 171.38 60.1723 173.24H61.3483C61.3723 172.004 62.0683 171.224 63.1363 171.224C64.1803 171.224 64.8043 171.872 64.8043 172.964C64.8043 173.888 64.4083 174.476 63.0043 175.688L60.2083 178.1V179L66.0643 178.988Z" fill="#25C26E"/>
<path d="M89.5372 174.668C89.5372 177.368 90.8692 179.156 93.1132 179.156C95.3452 179.156 96.6772 177.368 96.6772 174.668C96.6772 171.98 95.2852 170.156 93.1132 170.156C90.9292 170.156 89.5372 171.98 89.5372 174.668ZM90.7012 174.668C90.7012 172.508 91.5892 171.212 93.1132 171.212C94.6372 171.212 95.5132 172.508 95.5132 174.668C95.5132 176.804 94.6372 178.1 93.1132 178.1C91.5892 178.1 90.7012 176.804 90.7012 174.668ZM98.4333 179.144C98.8893 179.144 99.2853 178.76 99.2853 178.304C99.2853 177.836 98.8893 177.452 98.4333 177.452C97.9653 177.452 97.5693 177.836 97.5693 178.304C97.5693 178.76 97.9653 179.144 98.4333 179.144ZM99.8265 170.324V171.404H104.698L101.374 179H102.598L105.886 171.404V170.324H99.8265ZM109.281 179.144C111.153 179.144 112.437 177.884 112.437 176.084C112.437 174.416 111.297 173.18 109.533 173.18C108.885 173.18 108.309 173.36 107.853 173.708L108.429 171.404H111.921V170.324H107.577L106.521 174.776L107.517 175.028C107.913 174.536 108.585 174.188 109.317 174.188C110.529 174.188 111.237 175.016 111.237 176.132C111.237 177.308 110.481 178.088 109.305 178.088C108.201 178.088 107.517 177.404 107.517 176.288H106.353C106.353 178.016 107.505 179.144 109.281 179.144ZM113.431 176.588C113.431 178.124 114.691 179.144 116.623 179.144C118.543 179.144 119.815 178.124 119.815 176.6C119.815 175.532 119.191 174.668 118.219 174.356C119.035 174.032 119.491 173.348 119.491 172.46C119.491 171.092 118.339 170.168 116.635 170.168C114.907 170.168 113.743 171.092 113.743 172.448C113.743 173.324 114.187 174.008 115.003 174.356C114.043 174.704 113.431 175.544 113.431 176.588ZM114.823 172.52C114.823 171.716 115.531 171.188 116.611 171.188C117.703 171.188 118.387 171.716 118.387 172.544C118.387 173.384 117.703 173.924 116.611 173.924C115.531 173.924 114.823 173.372 114.823 172.52ZM114.583 176.504C114.583 175.544 115.375 174.932 116.611 174.932C117.859 174.932 118.651 175.544 118.651 176.504C118.651 177.476 117.847 178.1 116.623 178.1C115.387 178.1 114.583 177.476 114.583 176.504ZM126.007 176.252C126.895 175.04 127.207 174.308 127.207 173.288C127.207 171.524 125.815 170.168 124.015 170.168C122.227 170.168 120.859 171.476 120.859 173.276C120.859 175.004 122.071 176.3 123.871 176.3C124.171 176.3 124.483 176.24 124.783 176.12L122.611 179H123.979L126.007 176.252ZM126.007 173.276C126.007 174.464 125.191 175.304 124.015 175.304C122.863 175.304 122.047 174.464 122.047 173.276C122.047 172.088 122.863 171.224 124.015 171.224C125.191 171.224 126.007 172.088 126.007 173.276ZM129.29 173.072C128.402 174.284 128.09 175.004 128.09 176.036C128.09 177.788 129.482 179.144 131.282 179.144C133.07 179.144 134.438 177.848 134.438 176.036C134.438 174.32 133.226 173.024 131.426 173.024C131.126 173.024 130.814 173.084 130.514 173.204L132.686 170.324H131.318L129.29 173.072ZM129.29 176.048C129.29 174.86 130.106 174.02 131.282 174.02C132.434 174.02 133.25 174.86 133.25 176.048C133.25 177.236 132.434 178.088 131.282 178.088C130.106 178.088 129.29 177.236 129.29 176.048ZM138.414 179.144C140.286 179.144 141.57 177.884 141.57 176.084C141.57 174.416 140.43 173.18 138.666 173.18C138.018 173.18 137.442 173.36 136.986 173.708L137.562 171.404H141.054V170.324H136.71L135.654 174.776L136.65 175.028C137.046 174.536 137.718 174.188 138.45 174.188C139.662 174.188 140.37 175.016 140.37 176.132C140.37 177.308 139.614 178.088 138.438 178.088C137.334 178.088 136.65 177.404 136.65 176.288H135.486C135.486 178.016 136.638 179.144 138.414 179.144Z" fill="white"/>
<path d="M169.529 178.988V177.896H165.521L167.321 176.336C168.857 175.004 169.469 174.128 169.469 172.892C169.469 171.224 168.353 170.168 166.613 170.168C164.849 170.168 163.673 171.38 163.637 173.24H164.813C164.837 172.004 165.533 171.224 166.601 171.224C167.645 171.224 168.269 171.872 168.269 172.964C168.269 173.888 167.873 174.476 166.469 175.688L163.673 178.1V179L169.529 178.988ZM170.587 176.588C170.587 178.124 171.847 179.144 173.779 179.144C175.699 179.144 176.971 178.124 176.971 176.6C176.971 175.532 176.347 174.668 175.375 174.356C176.191 174.032 176.647 173.348 176.647 172.46C176.647 171.092 175.495 170.168 173.791 170.168C172.063 170.168 170.899 171.092 170.899 172.448C170.899 173.324 171.343 174.008 172.159 174.356C171.199 174.704 170.587 175.544 170.587 176.588ZM171.979 172.52C171.979 171.716 172.687 171.188 173.767 171.188C174.859 171.188 175.543 171.716 175.543 172.544C175.543 173.384 174.859 173.924 173.767 173.924C172.687 173.924 171.979 173.372 171.979 172.52ZM171.739 176.504C171.739 175.544 172.531 174.932 173.767 174.932C175.015 174.932 175.807 175.544 175.807 176.504C175.807 177.476 175.003 178.1 173.779 178.1C172.543 178.1 171.739 177.476 171.739 176.504ZM179.903 178.532C179.903 177.872 179.495 177.452 178.991 177.452C178.511 177.452 178.187 177.8 178.187 178.28C178.187 178.724 178.523 179.012 178.919 179.012C179.063 179.012 179.159 178.988 179.243 178.94C179.243 179.312 178.895 179.636 178.403 179.72V180.224C179.255 180.116 179.903 179.396 179.903 178.532ZM180.807 174.668C180.807 177.368 182.139 179.156 184.383 179.156C186.615 179.156 187.947 177.368 187.947 174.668C187.947 171.98 186.555 170.156 184.383 170.156C182.199 170.156 180.807 171.98 180.807 174.668ZM181.971 174.668C181.971 172.508 182.859 171.212 184.383 171.212C185.907 171.212 186.783 172.508 186.783 174.668C186.783 176.804 185.907 178.1 184.383 178.1C182.859 178.1 181.971 176.804 181.971 174.668ZM194.947 178.988V177.896H190.939L192.739 176.336C194.275 175.004 194.887 174.128 194.887 172.892C194.887 171.224 193.771 170.168 192.031 170.168C190.267 170.168 189.091 171.38 189.055 173.24H190.231C190.255 172.004 190.951 171.224 192.019 171.224C193.063 171.224 193.687 171.872 193.687 172.964C193.687 173.888 193.291 174.476 191.887 175.688L189.091 178.1V179L194.947 178.988ZM196.029 174.668C196.029 177.368 197.361 179.156 199.605 179.156C201.837 179.156 203.169 177.368 203.169 174.668C203.169 171.98 201.777 170.156 199.605 170.156C197.421 170.156 196.029 171.98 196.029 174.668ZM197.193 174.668C197.193 172.508 198.081 171.212 199.605 171.212C201.129 171.212 202.005 172.508 202.005 174.668C202.005 176.804 201.129 178.1 199.605 178.1C198.081 178.1 197.193 176.804 197.193 174.668ZM204.926 179.144C205.382 179.144 205.778 178.76 205.778 178.304C205.778 177.836 205.382 177.452 204.926 177.452C204.458 177.452 204.062 177.836 204.062 178.304C204.062 178.76 204.458 179.144 204.926 179.144ZM211.91 176.252C212.798 175.04 213.11 174.308 213.11 173.288C213.11 171.524 211.718 170.168 209.918 170.168C208.13 170.168 206.762 171.476 206.762 173.276C206.762 175.004 207.974 176.3 209.774 176.3C210.074 176.3 210.386 176.24 210.686 176.12L208.514 179H209.882L211.91 176.252ZM211.91 173.276C211.91 174.464 211.094 175.304 209.918 175.304C208.766 175.304 207.95 174.464 207.95 173.276C207.95 172.088 208.766 171.224 209.918 171.224C211.094 171.224 211.91 172.088 211.91 173.276ZM214.064 176.588C214.064 178.124 215.324 179.144 217.256 179.144C219.176 179.144 220.448 178.124 220.448 176.6C220.448 175.532 219.824 174.668 218.852 174.356C219.668 174.032 220.124 173.348 220.124 172.46C220.124 171.092 218.972 170.168 217.268 170.168C215.54 170.168 214.376 171.092 214.376 172.448C214.376 173.324 214.82 174.008 215.636 174.356C214.676 174.704 214.064 175.544 214.064 176.588ZM215.456 172.52C215.456 171.716 216.164 171.188 217.244 171.188C218.336 171.188 219.02 171.716 219.02 172.544C219.02 173.384 218.336 173.924 217.244 173.924C216.164 173.924 215.456 173.372 215.456 172.52ZM215.216 176.504C215.216 175.544 216.008 174.932 217.244 174.932C218.492 174.932 219.284 175.544 219.284 176.504C219.284 177.476 218.48 178.1 217.256 178.1C216.02 178.1 215.216 177.476 215.216 176.504Z" fill="white"/>
<g opacity="0.15">
<rect width="160" height="28" transform="translate(78 160)" fill="#25C26E"/>
</g>
</svg>
