<svg width="215" height="32" viewBox="0 0 215 32" fill="none" xmlns="http://www.w3.org/2000/svg">
<g clip-path="url(#clip0_2094_2286)">
<path d="M16 32C24.8366 32 32 24.8366 32 16C32 7.16344 24.8366 0 16 0C7.16344 0 0 7.16344 0 16C0 24.8366 7.16344 32 16 32Z" fill="#F7931A"/>
<path d="M23.032 14.02C23.346 11.924 21.749 10.797 19.567 10.045L20.275 7.205L18.547 6.775L17.857 9.54C17.403 9.426 16.937 9.32 16.472 9.214L17.167 6.431L15.439 6L14.731 8.839C14.355 8.753 13.985 8.669 13.627 8.579L13.629 8.57L11.245 7.975L10.785 9.821C10.785 9.821 12.068 10.115 12.041 10.133C12.741 10.308 12.867 10.771 12.846 11.139L12.04 14.374C12.088 14.386 12.15 14.404 12.22 14.431L12.037 14.386L10.907 18.918C10.821 19.13 10.604 19.449 10.114 19.328C10.132 19.353 8.858 19.015 8.858 19.015L8 20.993L10.25 21.554C10.668 21.659 11.078 21.769 11.481 21.872L10.766 24.744L12.493 25.174L13.201 22.334C13.673 22.461 14.131 22.579 14.579 22.691L13.873 25.519L15.601 25.949L16.316 23.083C19.264 23.641 21.48 23.416 22.413 20.75C23.165 18.604 22.376 17.365 20.825 16.558C21.955 16.298 22.805 15.555 23.032 14.02ZM19.082 19.558C18.549 21.705 14.934 20.544 13.762 20.253L14.712 16.448C15.884 16.741 19.641 17.32 19.082 19.558ZM19.617 13.989C19.13 15.942 16.122 14.949 15.147 14.706L16.007 11.256C16.982 11.499 20.125 11.952 19.617 13.989Z" fill="white"/>
</g>
<g clip-path="url(#clip1_2094_2286)">
<path d="M51.5 16C51.5 24.5604 44.5604 31.5 36 31.5C27.4396 31.5 20.5 24.5604 20.5 16C20.5 7.43959 27.4396 0.5 36 0.5C44.5604 0.5 51.5 7.43959 51.5 16Z" fill="#6CDE07" stroke="#20252B"/>
<path fill-rule="evenodd" clip-rule="evenodd" d="M43 19.154C43 21.724 40.914 23.43 37.834 23.687V26H35.724V23.664C33.6407 23.4291 31.6613 22.6289 30 21.35L31.552 19.224C32.935 20.299 34.244 21 35.821 21.234V16.654C32.28 15.766 30.631 14.481 30.631 11.841C30.631 9.318 32.692 7.589 35.724 7.355V6H37.834V7.402C39.4831 7.58518 41.0554 8.19754 42.394 9.178L41.035 11.374C39.968 10.603 38.877 10.112 37.737 9.879V14.318C41.424 15.206 43 16.631 43 19.154ZM35.82 13.827V9.715C34.293 9.832 33.493 10.65 33.493 11.678C33.493 12.658 33.953 13.29 35.821 13.828L35.82 13.827ZM40.138 19.317C40.138 18.267 39.628 17.636 37.737 17.098V21.328C39.265 21.21 40.138 20.439 40.138 19.318V19.317Z" fill="white"/>
</g>
<path d="M62.016 25H68.88C72.312 25 74.4 23.248 74.4 20.368C74.4 18.304 73.416 16.912 71.496 16.288C73.224 15.568 74.088 14.224 74.088 12.232C74.088 9.376 72.024 7.648 68.64 7.648H62.016V25ZM68.496 9.736C70.536 9.736 71.688 10.72 71.688 12.448C71.688 14.248 70.584 15.304 68.64 15.304H64.368V9.736H68.496ZM68.832 17.344C70.824 17.344 71.976 18.352 71.976 20.08C71.976 21.88 70.848 22.912 68.832 22.912H64.368V17.344H68.832ZM75.2891 9.808H80.5211V25H82.8731V9.808H88.0811V7.648H75.2891V9.808ZM96.9894 25.264C100.901 25.264 103.997 22.96 104.741 19.504H102.245C101.597 21.64 99.5814 23.008 97.0374 23.008C93.5334 23.008 91.2294 20.368 91.2294 16.312C91.2294 12.256 93.5334 9.616 97.0374 9.616C99.5574 9.616 101.501 10.984 102.149 13.24H104.669C104.021 9.688 101.021 7.36 97.1094 7.36C92.1414 7.36 88.7574 10.984 88.7574 16.336C88.7574 21.712 92.0454 25.264 96.9894 25.264ZM107.373 25L114.165 7.672H111.909L105.141 25H107.373ZM116.06 18.832C116.06 22.84 118.604 25.288 122.708 25.288C126.788 25.288 129.332 22.816 129.332 18.832V7.648H126.956V18.688C126.956 21.448 125.444 23.008 122.708 23.008C119.948 23.008 118.412 21.472 118.412 18.688V7.648H116.06V18.832ZM132.235 12.328C132.235 14.824 133.699 16.456 136.531 17.104L139.387 17.752C141.043 18.136 141.787 19 141.787 20.368C141.787 22.096 140.323 23.176 138.019 23.176C135.835 23.176 134.443 22.12 134.395 20.464H131.995C132.139 23.44 134.491 25.288 138.019 25.288C141.715 25.288 144.139 23.296 144.139 20.176C144.139 17.728 142.699 16.192 139.867 15.544L137.011 14.872C135.379 14.488 134.587 13.648 134.587 12.256C134.587 10.552 136.003 9.448 138.187 9.448C140.131 9.448 141.355 10.456 141.475 12.184H143.851C143.659 9.184 141.523 7.336 138.211 7.336C134.635 7.336 132.235 9.352 132.235 12.328ZM152.83 25C157.966 25 161.422 21.496 161.422 16.336C161.422 11.152 157.918 7.648 152.734 7.648H147.094V25H152.83ZM152.566 9.808C156.526 9.808 158.974 12.304 158.974 16.336C158.974 20.32 156.526 22.816 152.662 22.816H149.446V9.808H152.566ZM162.125 9.808H167.357V25H169.709V9.808H174.917V7.648H162.125V9.808Z" fill="white"/>
<path d="M200.519 19.079C199.014 17.9363 197.505 16.7973 196 15.6546C196.01 14.7435 196.024 13.8323 196.034 12.9211L200.691 16.4683L204.993 12.9325C204.993 13.3957 204.993 13.8551 204.997 14.3183C204.997 14.7814 204.997 15.2408 205 15.704C203.502 16.8277 202.01 17.9515 200.519 19.079Z" fill="white"/>
<defs>
<clipPath id="clip0_2094_2286">
<rect width="32" height="32" fill="white"/>
</clipPath>
<clipPath id="clip1_2094_2286">
<rect width="32" height="32" fill="white" transform="translate(20)"/>
</clipPath>
</defs>
</svg>
