<svg width="58" height="28" viewBox="0 0 58 28" fill="none" xmlns="http://www.w3.org/2000/svg">
<path d="M14.618 10.11H12.49V8.878H15.934V19H14.618V10.11ZM19.6196 19H18.2756V8.878H19.6196L23.1056 17.39L26.5916 8.878H27.9636V19H26.6196V14.996C26.6196 13.106 26.6336 12.42 26.7036 11.706L23.7496 19H22.4616L19.5216 11.734C19.5916 12.224 19.6196 13.26 19.6196 14.674V19Z" fill="#A7B1BC"/>
<path d="M53.3332 12.1133C53.2083 11.9891 53.0393 11.9194 52.8632 11.9194C52.6871 11.9194 52.5181 11.9891 52.3932 12.1133L49.9999 14.4733L47.6399 12.1133C47.515 11.9891 47.346 11.9194 47.1699 11.9194C46.9938 11.9194 46.8248 11.9891 46.6999 12.1133C46.6374 12.1753 46.5878 12.249 46.554 12.3302C46.5201 12.4115 46.5027 12.4986 46.5027 12.5866C46.5027 12.6746 46.5201 12.7618 46.554 12.843C46.5878 12.9243 46.6374 12.998 46.6999 13.06L49.5266 15.8866C49.5885 15.9491 49.6623 15.9987 49.7435 16.0326C49.8247 16.0664 49.9119 16.0838 49.9999 16.0838C50.0879 16.0838 50.175 16.0664 50.2563 16.0326C50.3375 15.9987 50.4112 15.9491 50.4732 15.8866L53.3332 13.06C53.3957 12.998 53.4453 12.9243 53.4791 12.843C53.513 12.7618 53.5304 12.6746 53.5304 12.5866C53.5304 12.4986 53.513 12.4115 53.4791 12.3302C53.4453 12.249 53.3957 12.1753 53.3332 12.1133Z" fill="#A7B1BC"/>
</svg>
