<svg width="238" height="203" viewBox="0 0 238 203" fill="none" xmlns="http://www.w3.org/2000/svg">
<path d="M20.38 14.404C22.072 14.404 23.176 13.228 23.176 11.608C23.176 9.94 22.084 8.824 20.38 8.824H17.008V17.5H18.184V14.404H20.38ZM20.176 9.88C21.28 9.88 21.94 10.504 21.94 11.596C21.94 12.664 21.292 13.348 20.128 13.348H18.184V9.88H20.176ZM27.676 11.584C27.448 11.536 27.28 11.512 27.076 11.512C26.272 11.512 25.684 11.92 25.444 12.532L25.372 11.644H24.316V17.5H25.444V14.392C25.444 13.264 26.104 12.616 27.172 12.616H27.676V11.584ZM29.286 10.24C29.694 10.24 30.03 9.904 30.03 9.496C30.03 9.076 29.694 8.752 29.286 8.752C28.878 8.752 28.542 9.076 28.542 9.496C28.542 9.904 28.878 10.24 29.286 10.24ZM28.734 17.5H29.862V11.632H28.734V17.5ZM31.1156 14.572C31.1156 16.42 32.2556 17.644 33.9836 17.644C35.3996 17.644 36.4916 16.792 36.7196 15.52H35.5916C35.3876 16.216 34.7876 16.636 33.9836 16.636C32.9156 16.636 32.2316 15.82 32.2316 14.56C32.2316 13.288 32.9636 12.472 34.0316 12.472C34.7876 12.472 35.3876 12.868 35.5796 13.612H36.7076C36.5036 12.304 35.4716 11.464 33.9956 11.464C32.2796 11.464 31.1156 12.736 31.1156 14.572ZM40.4418 17.644C41.8938 17.644 42.8778 16.936 43.1658 15.676H42.1098C41.9178 16.348 41.3418 16.708 40.4658 16.708C39.3498 16.708 38.7018 16.024 38.6178 14.788L43.1537 14.776V14.356C43.1537 12.616 42.0618 11.464 40.3938 11.464C38.6898 11.464 37.5258 12.736 37.5258 14.572C37.5258 16.396 38.7138 17.644 40.4418 17.644ZM40.3938 12.412C41.3898 12.412 42.0258 13.06 42.0258 14.032H38.6418C38.7858 13 39.4098 12.412 40.3938 12.412ZM18.511 35.057C17.746 34.004 17.296 32.42 17.296 30.827C17.296 29.144 17.8 27.596 18.511 26.606H17.809C16.927 27.695 16.432 29.297 16.432 30.827C16.432 32.456 16.981 34.022 17.809 35.057H18.511ZM19.2247 31.187C19.2247 32.69 20.1787 33.608 21.7177 33.608C23.2477 33.608 24.2017 32.681 24.2017 31.187V26.993H23.3107V31.133C23.3107 32.168 22.7437 32.753 21.7177 32.753C20.6827 32.753 20.1067 32.177 20.1067 31.133V26.993H19.2247V31.187ZM25.2901 28.748C25.2901 29.684 25.8391 30.296 26.9011 30.539L27.9721 30.782C28.5931 30.926 28.8721 31.25 28.8721 31.763C28.8721 32.411 28.3231 32.816 27.4591 32.816C26.6401 32.816 26.1181 32.42 26.1001 31.799H25.2001C25.2541 32.915 26.1361 33.608 27.4591 33.608C28.8451 33.608 29.7541 32.861 29.7541 31.691C29.7541 30.773 29.2141 30.197 28.1521 29.954L27.0811 29.702C26.4691 29.558 26.1721 29.243 26.1721 28.721C26.1721 28.082 26.7031 27.668 27.5221 27.668C28.2511 27.668 28.7101 28.046 28.7551 28.694H29.6461C29.5741 27.569 28.7731 26.876 27.5311 26.876C26.1901 26.876 25.2901 27.632 25.2901 28.748ZM33.0134 33.5C34.9394 33.5 36.2354 32.186 36.2354 30.251C36.2354 28.307 34.9214 26.993 32.9774 26.993H30.8624V33.5H33.0134ZM32.9144 27.803C34.3994 27.803 35.3174 28.739 35.3174 30.251C35.3174 31.745 34.3994 32.681 32.9504 32.681H31.7444V27.803H32.9144ZM36.499 27.803H38.461V33.5H39.343V27.803H41.296V26.993H36.499V27.803ZM42.3135 35.057C43.1325 34.022 43.6815 32.456 43.6815 30.827C43.6815 29.297 43.1865 27.695 42.3135 26.606H41.6025C42.3225 27.596 42.8175 29.144 42.8175 30.827C42.8175 32.42 42.3675 34.004 41.6025 35.057H42.3135Z" fill="#A7B1BC"/>
<path d="M94.3328 17.5L95.1008 15.34H98.7488L99.5288 17.5H100.765L97.5848 8.824H96.2768L93.1088 17.5H94.3328ZM96.7808 10.696C96.8408 10.516 96.9008 10.312 96.9248 10.192C96.9488 10.324 97.0088 10.528 97.0688 10.696L98.4008 14.32H95.4608L96.7808 10.696ZM102.854 17.5V14.02C102.854 13.084 103.418 12.496 104.27 12.496C105.062 12.496 105.566 13 105.566 13.924V17.5H106.682V14.02C106.682 13.084 107.246 12.484 108.098 12.484C108.89 12.484 109.406 13.012 109.406 13.936V17.5H110.51V13.66C110.51 12.304 109.694 11.464 108.35 11.464C107.438 11.464 106.73 11.92 106.454 12.652C106.154 11.92 105.506 11.464 104.594 11.464C103.766 11.464 103.142 11.848 102.842 12.4L102.734 11.632H101.726V17.5H102.854ZM111.69 14.56C111.69 16.372 112.986 17.644 114.75 17.644C116.502 17.644 117.798 16.372 117.798 14.56C117.798 12.748 116.502 11.476 114.75 11.476C112.986 11.476 111.69 12.748 111.69 14.56ZM112.83 14.56C112.83 13.336 113.61 12.484 114.75 12.484C115.878 12.484 116.67 13.336 116.67 14.56C116.67 15.784 115.878 16.636 114.75 16.636C113.61 16.636 112.83 15.784 112.83 14.56ZM122.962 11.632V14.728C122.962 15.988 122.398 16.648 121.366 16.648C120.502 16.648 119.962 16.168 119.962 14.908V11.632H118.834V15.28C118.834 16.72 119.602 17.644 120.97 17.644C121.834 17.644 122.614 17.224 122.95 16.612L123.07 17.5H124.078V11.632H122.962ZM126.842 17.5V14.392C126.842 13.252 127.454 12.496 128.51 12.496C129.374 12.496 129.926 12.976 129.926 14.164V17.5H131.054V13.912C131.054 12.412 130.346 11.464 128.798 11.464C127.97 11.464 127.226 11.86 126.854 12.532L126.734 11.632H125.714V17.5H126.842ZM134.273 17.5V12.58H135.425V11.632H134.273V9.796H133.145V11.632H131.993V12.58H133.145V17.5H134.273ZM135.957 15.796C135.957 16.912 136.833 17.644 138.213 17.644C139.605 17.644 140.565 16.936 140.565 15.82C140.565 14.944 140.073 14.488 139.077 14.248L138.045 13.996C137.469 13.852 137.181 13.588 137.181 13.192C137.181 12.652 137.577 12.34 138.285 12.34C138.969 12.34 139.365 12.712 139.389 13.3H140.469C140.445 12.184 139.605 11.464 138.321 11.464C137.025 11.464 136.113 12.148 136.113 13.228C136.113 14.092 136.605 14.608 137.649 14.86L138.681 15.1C139.293 15.256 139.485 15.496 139.485 15.892C139.485 16.432 139.029 16.756 138.237 16.756C137.493 16.756 137.037 16.396 137.037 15.796H135.957ZM121.38 35.057C120.615 34.004 120.165 32.42 120.165 30.827C120.165 29.144 120.669 27.596 121.38 26.606H120.678C119.796 27.695 119.301 29.297 119.301 30.827C119.301 32.456 119.85 34.022 120.678 35.057H121.38ZM122.139 33.5H124.713C126 33.5 126.783 32.843 126.783 31.763C126.783 30.989 126.414 30.467 125.694 30.233C126.342 29.963 126.666 29.459 126.666 28.712C126.666 27.641 125.892 26.993 124.623 26.993H122.139V33.5ZM124.569 27.776C125.334 27.776 125.766 28.145 125.766 28.793C125.766 29.468 125.352 29.864 124.623 29.864H123.021V27.776H124.569ZM124.695 30.629C125.442 30.629 125.874 31.007 125.874 31.655C125.874 32.33 125.451 32.717 124.695 32.717H123.021V30.629H124.695ZM127.116 27.803H129.078V33.5H129.96V27.803H131.913V26.993H127.116V27.803ZM135.254 33.599C136.721 33.599 137.882 32.735 138.161 31.439H137.225C136.982 32.24 136.226 32.753 135.272 32.753C133.958 32.753 133.094 31.763 133.094 30.242C133.094 28.721 133.958 27.731 135.272 27.731C136.217 27.731 136.946 28.244 137.189 29.09H138.134C137.891 27.758 136.766 26.885 135.299 26.885C133.436 26.885 132.167 28.244 132.167 30.251C132.167 32.267 133.4 33.599 135.254 33.599ZM139.197 35.057C140.016 34.022 140.565 32.456 140.565 30.827C140.565 29.297 140.07 27.695 139.197 26.606H138.486C139.206 27.596 139.701 29.144 139.701 30.827C139.701 32.42 139.251 34.004 138.486 35.057H139.197Z" fill="#A7B1BC"/>
<path d="M195.492 11.904H198.108V19.5H199.284V11.904H201.888V10.824H195.492V11.904ZM201.545 16.56C201.545 18.372 202.841 19.644 204.605 19.644C206.357 19.644 207.653 18.372 207.653 16.56C207.653 14.748 206.357 13.476 204.605 13.476C202.841 13.476 201.545 14.748 201.545 16.56ZM202.685 16.56C202.685 15.336 203.465 14.484 204.605 14.484C205.733 14.484 206.525 15.336 206.525 16.56C206.525 17.784 205.733 18.636 204.605 18.636C203.465 18.636 202.685 17.784 202.685 16.56ZM210.499 19.5V14.58H211.651V13.632H210.499V11.796H209.371V13.632H208.219V14.58H209.371V19.5H210.499ZM214.309 19.644C215.257 19.644 216.061 19.224 216.361 18.552L216.481 19.5H217.441V15.816C217.441 14.232 216.457 13.464 215.005 13.464C213.493 13.464 212.485 14.268 212.485 15.492H213.469C213.469 14.784 214.009 14.364 214.957 14.364C215.749 14.364 216.337 14.712 216.337 15.696V15.864L214.489 16.008C213.109 16.116 212.305 16.788 212.305 17.868C212.305 18.936 213.049 19.644 214.309 19.644ZM214.633 18.768C213.901 18.768 213.445 18.456 213.445 17.832C213.445 17.256 213.853 16.872 214.849 16.776L216.349 16.656V16.968C216.349 18.072 215.701 18.768 214.633 18.768ZM220.156 19.5V10.668H219.028V19.5H220.156Z" fill="#A7B1BC"/>
<g opacity="0.15">
<rect width="112" height="28" transform="translate(126 46)" fill="#FF6838"/>
</g>
<path d="M20.072 60.512C21.452 60.512 22.172 61.208 22.172 62.252C22.172 63.368 21.44 64.088 20.312 64.088C19.22 64.088 18.524 63.428 18.524 62.3H17.36C17.36 64.1 18.584 65.144 20.288 65.144C22.052 65.144 23.372 64.028 23.372 62.276C23.372 60.716 22.256 59.72 20.78 59.54L23.156 57.272V56.324H17.768V57.368H21.668L19.208 59.732V60.512H20.072ZM25.5123 59.072C24.6243 60.284 24.3123 61.004 24.3123 62.036C24.3123 63.788 25.7043 65.144 27.5043 65.144C29.2923 65.144 30.6603 63.848 30.6603 62.036C30.6603 60.32 29.4483 59.024 27.6483 59.024C27.3483 59.024 27.0363 59.084 26.7363 59.204L28.9083 56.324H27.5403L25.5123 59.072ZM25.5123 62.048C25.5123 60.86 26.3283 60.02 27.5043 60.02C28.6563 60.02 29.4723 60.86 29.4723 62.048C29.4723 63.236 28.6563 64.088 27.5043 64.088C26.3283 64.088 25.5123 63.236 25.5123 62.048ZM36.5619 62.252C37.4499 61.04 37.7619 60.308 37.7619 59.288C37.7619 57.524 36.3699 56.168 34.5699 56.168C32.7819 56.168 31.4139 57.476 31.4139 59.276C31.4139 61.004 32.6259 62.3 34.4259 62.3C34.7259 62.3 35.0379 62.24 35.3379 62.12L33.1659 65H34.5339L36.5619 62.252ZM36.5619 59.276C36.5619 60.464 35.7459 61.304 34.5699 61.304C33.4179 61.304 32.6019 60.464 32.6019 59.276C32.6019 58.088 33.4179 57.224 34.5699 57.224C35.7459 57.224 36.5619 58.088 36.5619 59.276ZM44.6189 64.988V63.896H40.6109L42.4109 62.336C43.9469 61.004 44.5589 60.128 44.5589 58.892C44.5589 57.224 43.4429 56.168 41.7029 56.168C39.9389 56.168 38.7629 57.38 38.7269 59.24H39.9029C39.9269 58.004 40.6229 57.224 41.6909 57.224C42.7349 57.224 43.3589 57.872 43.3589 58.964C43.3589 59.888 42.9629 60.476 41.5589 61.688L38.7629 64.1V65L44.6189 64.988ZM45.7013 60.668C45.7013 63.368 47.0333 65.156 49.2773 65.156C51.5093 65.156 52.8413 63.368 52.8413 60.668C52.8413 57.98 51.4493 56.156 49.2773 56.156C47.0933 56.156 45.7013 57.98 45.7013 60.668ZM46.8653 60.668C46.8653 58.508 47.7533 57.212 49.2773 57.212C50.8013 57.212 51.6773 58.508 51.6773 60.668C51.6773 62.804 50.8013 64.1 49.2773 64.1C47.7533 64.1 46.8653 62.804 46.8653 60.668ZM54.5974 65.144C55.0534 65.144 55.4494 64.76 55.4494 64.304C55.4494 63.836 55.0534 63.452 54.5974 63.452C54.1294 63.452 53.7334 63.836 53.7334 64.304C53.7334 64.76 54.1294 65.144 54.5974 65.144ZM57.5292 57.38V65H58.6572V56.324H55.7052V57.38H57.5292ZM66.0643 64.988V63.896H62.0563L63.8563 62.336C65.3923 61.004 66.0043 60.128 66.0043 58.892C66.0043 57.224 64.8883 56.168 63.1483 56.168C61.3843 56.168 60.2083 57.38 60.1723 59.24H61.3483C61.3723 58.004 62.0683 57.224 63.1363 57.224C64.1803 57.224 64.8043 57.872 64.8043 58.964C64.8043 59.888 64.4083 60.476 63.0043 61.688L60.2083 64.1V65L66.0643 64.988Z" fill="#FF6838"/>
<path d="M90.0372 60.668C90.0372 63.368 91.3692 65.156 93.6132 65.156C95.8452 65.156 97.1772 63.368 97.1772 60.668C97.1772 57.98 95.7852 56.156 93.6132 56.156C91.4292 56.156 90.0372 57.98 90.0372 60.668ZM91.2012 60.668C91.2012 58.508 92.0892 57.212 93.6132 57.212C95.1372 57.212 96.0132 58.508 96.0132 60.668C96.0132 62.804 95.1372 64.1 93.6132 64.1C92.0892 64.1 91.2012 62.804 91.2012 60.668ZM98.9333 65.144C99.3893 65.144 99.7853 64.76 99.7853 64.304C99.7853 63.836 99.3893 63.452 98.9333 63.452C98.4653 63.452 98.0693 63.836 98.0693 64.304C98.0693 64.76 98.4653 65.144 98.9333 65.144ZM100.326 56.324V57.404H105.198L101.874 65H103.098L106.386 57.404V56.324H100.326ZM109.781 65.144C111.653 65.144 112.937 63.884 112.937 62.084C112.937 60.416 111.797 59.18 110.033 59.18C109.385 59.18 108.809 59.36 108.353 59.708L108.929 57.404H112.421V56.324H108.077L107.021 60.776L108.017 61.028C108.413 60.536 109.085 60.188 109.817 60.188C111.029 60.188 111.737 61.016 111.737 62.132C111.737 63.308 110.981 64.088 109.805 64.088C108.701 64.088 108.017 63.404 108.017 62.288H106.853C106.853 64.016 108.005 65.144 109.781 65.144ZM113.931 62.588C113.931 64.124 115.191 65.144 117.123 65.144C119.043 65.144 120.315 64.124 120.315 62.6C120.315 61.532 119.691 60.668 118.719 60.356C119.535 60.032 119.991 59.348 119.991 58.46C119.991 57.092 118.839 56.168 117.135 56.168C115.407 56.168 114.243 57.092 114.243 58.448C114.243 59.324 114.687 60.008 115.503 60.356C114.543 60.704 113.931 61.544 113.931 62.588ZM115.323 58.52C115.323 57.716 116.031 57.188 117.111 57.188C118.203 57.188 118.887 57.716 118.887 58.544C118.887 59.384 118.203 59.924 117.111 59.924C116.031 59.924 115.323 59.372 115.323 58.52ZM115.083 62.504C115.083 61.544 115.875 60.932 117.111 60.932C118.359 60.932 119.151 61.544 119.151 62.504C119.151 63.476 118.347 64.1 117.123 64.1C115.887 64.1 115.083 63.476 115.083 62.504ZM126.507 62.252C127.395 61.04 127.707 60.308 127.707 59.288C127.707 57.524 126.315 56.168 124.515 56.168C122.727 56.168 121.359 57.476 121.359 59.276C121.359 61.004 122.571 62.3 124.371 62.3C124.671 62.3 124.983 62.24 125.283 62.12L123.111 65H124.479L126.507 62.252ZM126.507 59.276C126.507 60.464 125.691 61.304 124.515 61.304C123.363 61.304 122.547 60.464 122.547 59.276C122.547 58.088 123.363 57.224 124.515 57.224C125.691 57.224 126.507 58.088 126.507 59.276ZM129.79 59.072C128.902 60.284 128.59 61.004 128.59 62.036C128.59 63.788 129.982 65.144 131.782 65.144C133.57 65.144 134.938 63.848 134.938 62.036C134.938 60.32 133.726 59.024 131.926 59.024C131.626 59.024 131.314 59.084 131.014 59.204L133.186 56.324H131.818L129.79 59.072ZM129.79 62.048C129.79 60.86 130.606 60.02 131.782 60.02C132.934 60.02 133.75 60.86 133.75 62.048C133.75 63.236 132.934 64.088 131.782 64.088C130.606 64.088 129.79 63.236 129.79 62.048ZM138.914 65.144C140.786 65.144 142.07 63.884 142.07 62.084C142.07 60.416 140.93 59.18 139.166 59.18C138.518 59.18 137.942 59.36 137.486 59.708L138.062 57.404H141.554V56.324H137.21L136.154 60.776L137.15 61.028C137.546 60.536 138.218 60.188 138.95 60.188C140.162 60.188 140.87 61.016 140.87 62.132C140.87 63.308 140.114 64.088 138.938 64.088C137.834 64.088 137.15 63.404 137.15 62.288H135.986C135.986 64.016 137.138 65.144 138.914 65.144Z" fill="white"/>
<path d="M170.529 64.988V63.896H166.521L168.321 62.336C169.857 61.004 170.469 60.128 170.469 58.892C170.469 57.224 169.353 56.168 167.613 56.168C165.849 56.168 164.673 57.38 164.637 59.24H165.813C165.837 58.004 166.533 57.224 167.601 57.224C168.645 57.224 169.269 57.872 169.269 58.964C169.269 59.888 168.873 60.476 167.469 61.688L164.673 64.1V65L170.529 64.988ZM171.587 62.588C171.587 64.124 172.847 65.144 174.779 65.144C176.699 65.144 177.971 64.124 177.971 62.6C177.971 61.532 177.347 60.668 176.375 60.356C177.191 60.032 177.647 59.348 177.647 58.46C177.647 57.092 176.495 56.168 174.791 56.168C173.063 56.168 171.899 57.092 171.899 58.448C171.899 59.324 172.343 60.008 173.159 60.356C172.199 60.704 171.587 61.544 171.587 62.588ZM172.979 58.52C172.979 57.716 173.687 57.188 174.767 57.188C175.859 57.188 176.543 57.716 176.543 58.544C176.543 59.384 175.859 59.924 174.767 59.924C173.687 59.924 172.979 59.372 172.979 58.52ZM172.739 62.504C172.739 61.544 173.531 60.932 174.767 60.932C176.015 60.932 176.807 61.544 176.807 62.504C176.807 63.476 176.003 64.1 174.779 64.1C173.543 64.1 172.739 63.476 172.739 62.504ZM180.903 64.532C180.903 63.872 180.495 63.452 179.991 63.452C179.511 63.452 179.187 63.8 179.187 64.28C179.187 64.724 179.523 65.012 179.919 65.012C180.063 65.012 180.159 64.988 180.243 64.94C180.243 65.312 179.895 65.636 179.403 65.72V66.224C180.255 66.116 180.903 65.396 180.903 64.532ZM181.807 60.668C181.807 63.368 183.139 65.156 185.383 65.156C187.615 65.156 188.947 63.368 188.947 60.668C188.947 57.98 187.555 56.156 185.383 56.156C183.199 56.156 181.807 57.98 181.807 60.668ZM182.971 60.668C182.971 58.508 183.859 57.212 185.383 57.212C186.907 57.212 187.783 58.508 187.783 60.668C187.783 62.804 186.907 64.1 185.383 64.1C183.859 64.1 182.971 62.804 182.971 60.668ZM195.947 64.988V63.896H191.939L193.739 62.336C195.275 61.004 195.887 60.128 195.887 58.892C195.887 57.224 194.771 56.168 193.031 56.168C191.267 56.168 190.091 57.38 190.055 59.24H191.231C191.255 58.004 191.951 57.224 193.019 57.224C194.063 57.224 194.687 57.872 194.687 58.964C194.687 59.888 194.291 60.476 192.887 61.688L190.091 64.1V65L195.947 64.988ZM197.029 60.668C197.029 63.368 198.361 65.156 200.605 65.156C202.837 65.156 204.169 63.368 204.169 60.668C204.169 57.98 202.777 56.156 200.605 56.156C198.421 56.156 197.029 57.98 197.029 60.668ZM198.193 60.668C198.193 58.508 199.081 57.212 200.605 57.212C202.129 57.212 203.005 58.508 203.005 60.668C203.005 62.804 202.129 64.1 200.605 64.1C199.081 64.1 198.193 62.804 198.193 60.668ZM205.926 65.144C206.382 65.144 206.778 64.76 206.778 64.304C206.778 63.836 206.382 63.452 205.926 63.452C205.458 63.452 205.062 63.836 205.062 64.304C205.062 64.76 205.458 65.144 205.926 65.144ZM212.91 62.252C213.798 61.04 214.11 60.308 214.11 59.288C214.11 57.524 212.718 56.168 210.918 56.168C209.13 56.168 207.762 57.476 207.762 59.276C207.762 61.004 208.974 62.3 210.774 62.3C211.074 62.3 211.386 62.24 211.686 62.12L209.514 65H210.882L212.91 62.252ZM212.91 59.276C212.91 60.464 212.094 61.304 210.918 61.304C209.766 61.304 208.95 60.464 208.95 59.276C208.95 58.088 209.766 57.224 210.918 57.224C212.094 57.224 212.91 58.088 212.91 59.276ZM215.064 62.588C215.064 64.124 216.324 65.144 218.256 65.144C220.176 65.144 221.448 64.124 221.448 62.6C221.448 61.532 220.824 60.668 219.852 60.356C220.668 60.032 221.124 59.348 221.124 58.46C221.124 57.092 219.972 56.168 218.268 56.168C216.54 56.168 215.376 57.092 215.376 58.448C215.376 59.324 215.82 60.008 216.636 60.356C215.676 60.704 215.064 61.544 215.064 62.588ZM216.456 58.52C216.456 57.716 217.164 57.188 218.244 57.188C219.336 57.188 220.02 57.716 220.02 58.544C220.02 59.384 219.336 59.924 218.244 59.924C217.164 59.924 216.456 59.372 216.456 58.52ZM216.216 62.504C216.216 61.544 217.008 60.932 218.244 60.932C219.492 60.932 220.284 61.544 220.284 62.504C220.284 63.476 219.48 64.1 218.256 64.1C217.02 64.1 216.216 63.476 216.216 62.504Z" fill="white"/>
<g opacity="0.15">
<rect width="1" height="28" transform="translate(237 78)" fill="#FF6838"/>
</g>
<path d="M20.072 92.512C21.452 92.512 22.172 93.208 22.172 94.252C22.172 95.368 21.44 96.088 20.312 96.088C19.22 96.088 18.524 95.428 18.524 94.3H17.36C17.36 96.1 18.584 97.144 20.288 97.144C22.052 97.144 23.372 96.028 23.372 94.276C23.372 92.716 22.256 91.72 20.78 91.54L23.156 89.272V88.324H17.768V89.368H21.668L19.208 91.732V92.512H20.072ZM25.5123 91.072C24.6243 92.284 24.3123 93.004 24.3123 94.036C24.3123 95.788 25.7043 97.144 27.5043 97.144C29.2923 97.144 30.6603 95.848 30.6603 94.036C30.6603 92.32 29.4483 91.024 27.6483 91.024C27.3483 91.024 27.0363 91.084 26.7363 91.204L28.9083 88.324H27.5403L25.5123 91.072ZM25.5123 94.048C25.5123 92.86 26.3283 92.02 27.5043 92.02C28.6563 92.02 29.4723 92.86 29.4723 94.048C29.4723 95.236 28.6563 96.088 27.5043 96.088C26.3283 96.088 25.5123 95.236 25.5123 94.048ZM36.5619 94.252C37.4499 93.04 37.7619 92.308 37.7619 91.288C37.7619 89.524 36.3699 88.168 34.5699 88.168C32.7819 88.168 31.4139 89.476 31.4139 91.276C31.4139 93.004 32.6259 94.3 34.4259 94.3C34.7259 94.3 35.0379 94.24 35.3379 94.12L33.1659 97H34.5339L36.5619 94.252ZM36.5619 91.276C36.5619 92.464 35.7459 93.304 34.5699 93.304C33.4179 93.304 32.6019 92.464 32.6019 91.276C32.6019 90.088 33.4179 89.224 34.5699 89.224C35.7459 89.224 36.5619 90.088 36.5619 91.276ZM44.6189 96.988V95.896H40.6109L42.4109 94.336C43.9469 93.004 44.5589 92.128 44.5589 90.892C44.5589 89.224 43.4429 88.168 41.7029 88.168C39.9389 88.168 38.7629 89.38 38.7269 91.24H39.9029C39.9269 90.004 40.6229 89.224 41.6909 89.224C42.7349 89.224 43.3589 89.872 43.3589 90.964C43.3589 91.888 42.9629 92.476 41.5589 93.688L38.7629 96.1V97L44.6189 96.988ZM45.7013 92.668C45.7013 95.368 47.0333 97.156 49.2773 97.156C51.5093 97.156 52.8413 95.368 52.8413 92.668C52.8413 89.98 51.4493 88.156 49.2773 88.156C47.0933 88.156 45.7013 89.98 45.7013 92.668ZM46.8653 92.668C46.8653 90.508 47.7533 89.212 49.2773 89.212C50.8013 89.212 51.6773 90.508 51.6773 92.668C51.6773 94.804 50.8013 96.1 49.2773 96.1C47.7533 96.1 46.8653 94.804 46.8653 92.668ZM54.5974 97.144C55.0534 97.144 55.4494 96.76 55.4494 96.304C55.4494 95.836 55.0534 95.452 54.5974 95.452C54.1294 95.452 53.7334 95.836 53.7334 96.304C53.7334 96.76 54.1294 97.144 54.5974 97.144ZM57.5292 89.38V97H58.6572V88.324H55.7052V89.38H57.5292ZM66.0643 96.988V95.896H62.0563L63.8563 94.336C65.3923 93.004 66.0043 92.128 66.0043 90.892C66.0043 89.224 64.8883 88.168 63.1483 88.168C61.3843 88.168 60.2083 89.38 60.1723 91.24H61.3483C61.3723 90.004 62.0683 89.224 63.1363 89.224C64.1803 89.224 64.8043 89.872 64.8043 90.964C64.8043 91.888 64.4083 92.476 63.0043 93.688L60.2083 96.1V97L66.0643 96.988Z" fill="#FF6838"/>
<path d="M90.0372 92.668C90.0372 95.368 91.3692 97.156 93.6132 97.156C95.8452 97.156 97.1772 95.368 97.1772 92.668C97.1772 89.98 95.7852 88.156 93.6132 88.156C91.4292 88.156 90.0372 89.98 90.0372 92.668ZM91.2012 92.668C91.2012 90.508 92.0892 89.212 93.6132 89.212C95.1372 89.212 96.0132 90.508 96.0132 92.668C96.0132 94.804 95.1372 96.1 93.6132 96.1C92.0892 96.1 91.2012 94.804 91.2012 92.668ZM98.9333 97.144C99.3893 97.144 99.7853 96.76 99.7853 96.304C99.7853 95.836 99.3893 95.452 98.9333 95.452C98.4653 95.452 98.0693 95.836 98.0693 96.304C98.0693 96.76 98.4653 97.144 98.9333 97.144ZM100.326 88.324V89.404H105.198L101.874 97H103.098L106.386 89.404V88.324H100.326ZM109.781 97.144C111.653 97.144 112.937 95.884 112.937 94.084C112.937 92.416 111.797 91.18 110.033 91.18C109.385 91.18 108.809 91.36 108.353 91.708L108.929 89.404H112.421V88.324H108.077L107.021 92.776L108.017 93.028C108.413 92.536 109.085 92.188 109.817 92.188C111.029 92.188 111.737 93.016 111.737 94.132C111.737 95.308 110.981 96.088 109.805 96.088C108.701 96.088 108.017 95.404 108.017 94.288H106.853C106.853 96.016 108.005 97.144 109.781 97.144ZM113.931 94.588C113.931 96.124 115.191 97.144 117.123 97.144C119.043 97.144 120.315 96.124 120.315 94.6C120.315 93.532 119.691 92.668 118.719 92.356C119.535 92.032 119.991 91.348 119.991 90.46C119.991 89.092 118.839 88.168 117.135 88.168C115.407 88.168 114.243 89.092 114.243 90.448C114.243 91.324 114.687 92.008 115.503 92.356C114.543 92.704 113.931 93.544 113.931 94.588ZM115.323 90.52C115.323 89.716 116.031 89.188 117.111 89.188C118.203 89.188 118.887 89.716 118.887 90.544C118.887 91.384 118.203 91.924 117.111 91.924C116.031 91.924 115.323 91.372 115.323 90.52ZM115.083 94.504C115.083 93.544 115.875 92.932 117.111 92.932C118.359 92.932 119.151 93.544 119.151 94.504C119.151 95.476 118.347 96.1 117.123 96.1C115.887 96.1 115.083 95.476 115.083 94.504ZM126.507 94.252C127.395 93.04 127.707 92.308 127.707 91.288C127.707 89.524 126.315 88.168 124.515 88.168C122.727 88.168 121.359 89.476 121.359 91.276C121.359 93.004 122.571 94.3 124.371 94.3C124.671 94.3 124.983 94.24 125.283 94.12L123.111 97H124.479L126.507 94.252ZM126.507 91.276C126.507 92.464 125.691 93.304 124.515 93.304C123.363 93.304 122.547 92.464 122.547 91.276C122.547 90.088 123.363 89.224 124.515 89.224C125.691 89.224 126.507 90.088 126.507 91.276ZM129.79 91.072C128.902 92.284 128.59 93.004 128.59 94.036C128.59 95.788 129.982 97.144 131.782 97.144C133.57 97.144 134.938 95.848 134.938 94.036C134.938 92.32 133.726 91.024 131.926 91.024C131.626 91.024 131.314 91.084 131.014 91.204L133.186 88.324H131.818L129.79 91.072ZM129.79 94.048C129.79 92.86 130.606 92.02 131.782 92.02C132.934 92.02 133.75 92.86 133.75 94.048C133.75 95.236 132.934 96.088 131.782 96.088C130.606 96.088 129.79 95.236 129.79 94.048ZM138.914 97.144C140.786 97.144 142.07 95.884 142.07 94.084C142.07 92.416 140.93 91.18 139.166 91.18C138.518 91.18 137.942 91.36 137.486 91.708L138.062 89.404H141.554V88.324H137.21L136.154 92.776L137.15 93.028C137.546 92.536 138.218 92.188 138.95 92.188C140.162 92.188 140.87 93.016 140.87 94.132C140.87 95.308 140.114 96.088 138.938 96.088C137.834 96.088 137.15 95.404 137.15 94.288H135.986C135.986 96.016 137.138 97.144 138.914 97.144Z" fill="white"/>
<path d="M170.529 96.988V95.896H166.521L168.321 94.336C169.857 93.004 170.469 92.128 170.469 90.892C170.469 89.224 169.353 88.168 167.613 88.168C165.849 88.168 164.673 89.38 164.637 91.24H165.813C165.837 90.004 166.533 89.224 167.601 89.224C168.645 89.224 169.269 89.872 169.269 90.964C169.269 91.888 168.873 92.476 167.469 93.688L164.673 96.1V97L170.529 96.988ZM171.587 94.588C171.587 96.124 172.847 97.144 174.779 97.144C176.699 97.144 177.971 96.124 177.971 94.6C177.971 93.532 177.347 92.668 176.375 92.356C177.191 92.032 177.647 91.348 177.647 90.46C177.647 89.092 176.495 88.168 174.791 88.168C173.063 88.168 171.899 89.092 171.899 90.448C171.899 91.324 172.343 92.008 173.159 92.356C172.199 92.704 171.587 93.544 171.587 94.588ZM172.979 90.52C172.979 89.716 173.687 89.188 174.767 89.188C175.859 89.188 176.543 89.716 176.543 90.544C176.543 91.384 175.859 91.924 174.767 91.924C173.687 91.924 172.979 91.372 172.979 90.52ZM172.739 94.504C172.739 93.544 173.531 92.932 174.767 92.932C176.015 92.932 176.807 93.544 176.807 94.504C176.807 95.476 176.003 96.1 174.779 96.1C173.543 96.1 172.739 95.476 172.739 94.504ZM180.903 96.532C180.903 95.872 180.495 95.452 179.991 95.452C179.511 95.452 179.187 95.8 179.187 96.28C179.187 96.724 179.523 97.012 179.919 97.012C180.063 97.012 180.159 96.988 180.243 96.94C180.243 97.312 179.895 97.636 179.403 97.72V98.224C180.255 98.116 180.903 97.396 180.903 96.532ZM181.807 92.668C181.807 95.368 183.139 97.156 185.383 97.156C187.615 97.156 188.947 95.368 188.947 92.668C188.947 89.98 187.555 88.156 185.383 88.156C183.199 88.156 181.807 89.98 181.807 92.668ZM182.971 92.668C182.971 90.508 183.859 89.212 185.383 89.212C186.907 89.212 187.783 90.508 187.783 92.668C187.783 94.804 186.907 96.1 185.383 96.1C183.859 96.1 182.971 94.804 182.971 92.668ZM195.947 96.988V95.896H191.939L193.739 94.336C195.275 93.004 195.887 92.128 195.887 90.892C195.887 89.224 194.771 88.168 193.031 88.168C191.267 88.168 190.091 89.38 190.055 91.24H191.231C191.255 90.004 191.951 89.224 193.019 89.224C194.063 89.224 194.687 89.872 194.687 90.964C194.687 91.888 194.291 92.476 192.887 93.688L190.091 96.1V97L195.947 96.988ZM197.029 92.668C197.029 95.368 198.361 97.156 200.605 97.156C202.837 97.156 204.169 95.368 204.169 92.668C204.169 89.98 202.777 88.156 200.605 88.156C198.421 88.156 197.029 89.98 197.029 92.668ZM198.193 92.668C198.193 90.508 199.081 89.212 200.605 89.212C202.129 89.212 203.005 90.508 203.005 92.668C203.005 94.804 202.129 96.1 200.605 96.1C199.081 96.1 198.193 94.804 198.193 92.668ZM205.926 97.144C206.382 97.144 206.778 96.76 206.778 96.304C206.778 95.836 206.382 95.452 205.926 95.452C205.458 95.452 205.062 95.836 205.062 96.304C205.062 96.76 205.458 97.144 205.926 97.144ZM212.91 94.252C213.798 93.04 214.11 92.308 214.11 91.288C214.11 89.524 212.718 88.168 210.918 88.168C209.13 88.168 207.762 89.476 207.762 91.276C207.762 93.004 208.974 94.3 210.774 94.3C211.074 94.3 211.386 94.24 211.686 94.12L209.514 97H210.882L212.91 94.252ZM212.91 91.276C212.91 92.464 212.094 93.304 210.918 93.304C209.766 93.304 208.95 92.464 208.95 91.276C208.95 90.088 209.766 89.224 210.918 89.224C212.094 89.224 212.91 90.088 212.91 91.276ZM215.064 94.588C215.064 96.124 216.324 97.144 218.256 97.144C220.176 97.144 221.448 96.124 221.448 94.6C221.448 93.532 220.824 92.668 219.852 92.356C220.668 92.032 221.124 91.348 221.124 90.46C221.124 89.092 219.972 88.168 218.268 88.168C216.54 88.168 215.376 89.092 215.376 90.448C215.376 91.324 215.82 92.008 216.636 92.356C215.676 92.704 215.064 93.544 215.064 94.588ZM216.456 90.52C216.456 89.716 217.164 89.188 218.244 89.188C219.336 89.188 220.02 89.716 220.02 90.544C220.02 91.384 219.336 91.924 218.244 91.924C217.164 91.924 216.456 91.372 216.456 90.52ZM216.216 94.504C216.216 93.544 217.008 92.932 218.244 92.932C219.492 92.932 220.284 93.544 220.284 94.504C220.284 95.476 219.48 96.1 218.256 96.1C217.02 96.1 216.216 95.476 216.216 94.504Z" fill="white"/>
<g opacity="0.15">
<rect width="128" height="28" transform="translate(110 110)" fill="#FF6838"/>
</g>
<path d="M20.072 124.512C21.452 124.512 22.172 125.208 22.172 126.252C22.172 127.368 21.44 128.088 20.312 128.088C19.22 128.088 18.524 127.428 18.524 126.3H17.36C17.36 128.1 18.584 129.144 20.288 129.144C22.052 129.144 23.372 128.028 23.372 126.276C23.372 124.716 22.256 123.72 20.78 123.54L23.156 121.272V120.324H17.768V121.368H21.668L19.208 123.732V124.512H20.072ZM25.5123 123.072C24.6243 124.284 24.3123 125.004 24.3123 126.036C24.3123 127.788 25.7043 129.144 27.5043 129.144C29.2923 129.144 30.6603 127.848 30.6603 126.036C30.6603 124.32 29.4483 123.024 27.6483 123.024C27.3483 123.024 27.0363 123.084 26.7363 123.204L28.9083 120.324H27.5403L25.5123 123.072ZM25.5123 126.048C25.5123 124.86 26.3283 124.02 27.5043 124.02C28.6563 124.02 29.4723 124.86 29.4723 126.048C29.4723 127.236 28.6563 128.088 27.5043 128.088C26.3283 128.088 25.5123 127.236 25.5123 126.048ZM36.5619 126.252C37.4499 125.04 37.7619 124.308 37.7619 123.288C37.7619 121.524 36.3699 120.168 34.5699 120.168C32.7819 120.168 31.4139 121.476 31.4139 123.276C31.4139 125.004 32.6259 126.3 34.4259 126.3C34.7259 126.3 35.0379 126.24 35.3379 126.12L33.1659 129H34.5339L36.5619 126.252ZM36.5619 123.276C36.5619 124.464 35.7459 125.304 34.5699 125.304C33.4179 125.304 32.6019 124.464 32.6019 123.276C32.6019 122.088 33.4179 121.224 34.5699 121.224C35.7459 121.224 36.5619 122.088 36.5619 123.276ZM44.6189 128.988V127.896H40.6109L42.4109 126.336C43.9469 125.004 44.5589 124.128 44.5589 122.892C44.5589 121.224 43.4429 120.168 41.7029 120.168C39.9389 120.168 38.7629 121.38 38.7269 123.24H39.9029C39.9269 122.004 40.6229 121.224 41.6909 121.224C42.7349 121.224 43.3589 121.872 43.3589 122.964C43.3589 123.888 42.9629 124.476 41.5589 125.688L38.7629 128.1V129L44.6189 128.988ZM45.7013 124.668C45.7013 127.368 47.0333 129.156 49.2773 129.156C51.5093 129.156 52.8413 127.368 52.8413 124.668C52.8413 121.98 51.4493 120.156 49.2773 120.156C47.0933 120.156 45.7013 121.98 45.7013 124.668ZM46.8653 124.668C46.8653 122.508 47.7533 121.212 49.2773 121.212C50.8013 121.212 51.6773 122.508 51.6773 124.668C51.6773 126.804 50.8013 128.1 49.2773 128.1C47.7533 128.1 46.8653 126.804 46.8653 124.668ZM54.5974 129.144C55.0534 129.144 55.4494 128.76 55.4494 128.304C55.4494 127.836 55.0534 127.452 54.5974 127.452C54.1294 127.452 53.7334 127.836 53.7334 128.304C53.7334 128.76 54.1294 129.144 54.5974 129.144ZM57.5292 121.38V129H58.6572V120.324H55.7052V121.38H57.5292ZM66.0643 128.988V127.896H62.0563L63.8563 126.336C65.3923 125.004 66.0043 124.128 66.0043 122.892C66.0043 121.224 64.8883 120.168 63.1483 120.168C61.3843 120.168 60.2083 121.38 60.1723 123.24H61.3483C61.3723 122.004 62.0683 121.224 63.1363 121.224C64.1803 121.224 64.8043 121.872 64.8043 122.964C64.8043 123.888 64.4083 124.476 63.0043 125.688L60.2083 128.1V129L66.0643 128.988Z" fill="#FF6838"/>
<path d="M90.0372 124.668C90.0372 127.368 91.3692 129.156 93.6132 129.156C95.8452 129.156 97.1772 127.368 97.1772 124.668C97.1772 121.98 95.7852 120.156 93.6132 120.156C91.4292 120.156 90.0372 121.98 90.0372 124.668ZM91.2012 124.668C91.2012 122.508 92.0892 121.212 93.6132 121.212C95.1372 121.212 96.0132 122.508 96.0132 124.668C96.0132 126.804 95.1372 128.1 93.6132 128.1C92.0892 128.1 91.2012 126.804 91.2012 124.668ZM98.9333 129.144C99.3893 129.144 99.7853 128.76 99.7853 128.304C99.7853 127.836 99.3893 127.452 98.9333 127.452C98.4653 127.452 98.0693 127.836 98.0693 128.304C98.0693 128.76 98.4653 129.144 98.9333 129.144ZM100.326 120.324V121.404H105.198L101.874 129H103.098L106.386 121.404V120.324H100.326ZM109.781 129.144C111.653 129.144 112.937 127.884 112.937 126.084C112.937 124.416 111.797 123.18 110.033 123.18C109.385 123.18 108.809 123.36 108.353 123.708L108.929 121.404H112.421V120.324H108.077L107.021 124.776L108.017 125.028C108.413 124.536 109.085 124.188 109.817 124.188C111.029 124.188 111.737 125.016 111.737 126.132C111.737 127.308 110.981 128.088 109.805 128.088C108.701 128.088 108.017 127.404 108.017 126.288H106.853C106.853 128.016 108.005 129.144 109.781 129.144ZM113.931 126.588C113.931 128.124 115.191 129.144 117.123 129.144C119.043 129.144 120.315 128.124 120.315 126.6C120.315 125.532 119.691 124.668 118.719 124.356C119.535 124.032 119.991 123.348 119.991 122.46C119.991 121.092 118.839 120.168 117.135 120.168C115.407 120.168 114.243 121.092 114.243 122.448C114.243 123.324 114.687 124.008 115.503 124.356C114.543 124.704 113.931 125.544 113.931 126.588ZM115.323 122.52C115.323 121.716 116.031 121.188 117.111 121.188C118.203 121.188 118.887 121.716 118.887 122.544C118.887 123.384 118.203 123.924 117.111 123.924C116.031 123.924 115.323 123.372 115.323 122.52ZM115.083 126.504C115.083 125.544 115.875 124.932 117.111 124.932C118.359 124.932 119.151 125.544 119.151 126.504C119.151 127.476 118.347 128.1 117.123 128.1C115.887 128.1 115.083 127.476 115.083 126.504ZM126.507 126.252C127.395 125.04 127.707 124.308 127.707 123.288C127.707 121.524 126.315 120.168 124.515 120.168C122.727 120.168 121.359 121.476 121.359 123.276C121.359 125.004 122.571 126.3 124.371 126.3C124.671 126.3 124.983 126.24 125.283 126.12L123.111 129H124.479L126.507 126.252ZM126.507 123.276C126.507 124.464 125.691 125.304 124.515 125.304C123.363 125.304 122.547 124.464 122.547 123.276C122.547 122.088 123.363 121.224 124.515 121.224C125.691 121.224 126.507 122.088 126.507 123.276ZM129.79 123.072C128.902 124.284 128.59 125.004 128.59 126.036C128.59 127.788 129.982 129.144 131.782 129.144C133.57 129.144 134.938 127.848 134.938 126.036C134.938 124.32 133.726 123.024 131.926 123.024C131.626 123.024 131.314 123.084 131.014 123.204L133.186 120.324H131.818L129.79 123.072ZM129.79 126.048C129.79 124.86 130.606 124.02 131.782 124.02C132.934 124.02 133.75 124.86 133.75 126.048C133.75 127.236 132.934 128.088 131.782 128.088C130.606 128.088 129.79 127.236 129.79 126.048ZM138.914 129.144C140.786 129.144 142.07 127.884 142.07 126.084C142.07 124.416 140.93 123.18 139.166 123.18C138.518 123.18 137.942 123.36 137.486 123.708L138.062 121.404H141.554V120.324H137.21L136.154 124.776L137.15 125.028C137.546 124.536 138.218 124.188 138.95 124.188C140.162 124.188 140.87 125.016 140.87 126.132C140.87 127.308 140.114 128.088 138.938 128.088C137.834 128.088 137.15 127.404 137.15 126.288H135.986C135.986 128.016 137.138 129.144 138.914 129.144Z" fill="white"/>
<path d="M170.529 128.988V127.896H166.521L168.321 126.336C169.857 125.004 170.469 124.128 170.469 122.892C170.469 121.224 169.353 120.168 167.613 120.168C165.849 120.168 164.673 121.38 164.637 123.24H165.813C165.837 122.004 166.533 121.224 167.601 121.224C168.645 121.224 169.269 121.872 169.269 122.964C169.269 123.888 168.873 124.476 167.469 125.688L164.673 128.1V129L170.529 128.988ZM171.587 126.588C171.587 128.124 172.847 129.144 174.779 129.144C176.699 129.144 177.971 128.124 177.971 126.6C177.971 125.532 177.347 124.668 176.375 124.356C177.191 124.032 177.647 123.348 177.647 122.46C177.647 121.092 176.495 120.168 174.791 120.168C173.063 120.168 171.899 121.092 171.899 122.448C171.899 123.324 172.343 124.008 173.159 124.356C172.199 124.704 171.587 125.544 171.587 126.588ZM172.979 122.52C172.979 121.716 173.687 121.188 174.767 121.188C175.859 121.188 176.543 121.716 176.543 122.544C176.543 123.384 175.859 123.924 174.767 123.924C173.687 123.924 172.979 123.372 172.979 122.52ZM172.739 126.504C172.739 125.544 173.531 124.932 174.767 124.932C176.015 124.932 176.807 125.544 176.807 126.504C176.807 127.476 176.003 128.1 174.779 128.1C173.543 128.1 172.739 127.476 172.739 126.504ZM180.903 128.532C180.903 127.872 180.495 127.452 179.991 127.452C179.511 127.452 179.187 127.8 179.187 128.28C179.187 128.724 179.523 129.012 179.919 129.012C180.063 129.012 180.159 128.988 180.243 128.94C180.243 129.312 179.895 129.636 179.403 129.72V130.224C180.255 130.116 180.903 129.396 180.903 128.532ZM181.807 124.668C181.807 127.368 183.139 129.156 185.383 129.156C187.615 129.156 188.947 127.368 188.947 124.668C188.947 121.98 187.555 120.156 185.383 120.156C183.199 120.156 181.807 121.98 181.807 124.668ZM182.971 124.668C182.971 122.508 183.859 121.212 185.383 121.212C186.907 121.212 187.783 122.508 187.783 124.668C187.783 126.804 186.907 128.1 185.383 128.1C183.859 128.1 182.971 126.804 182.971 124.668ZM195.947 128.988V127.896H191.939L193.739 126.336C195.275 125.004 195.887 124.128 195.887 122.892C195.887 121.224 194.771 120.168 193.031 120.168C191.267 120.168 190.091 121.38 190.055 123.24H191.231C191.255 122.004 191.951 121.224 193.019 121.224C194.063 121.224 194.687 121.872 194.687 122.964C194.687 123.888 194.291 124.476 192.887 125.688L190.091 128.1V129L195.947 128.988ZM197.029 124.668C197.029 127.368 198.361 129.156 200.605 129.156C202.837 129.156 204.169 127.368 204.169 124.668C204.169 121.98 202.777 120.156 200.605 120.156C198.421 120.156 197.029 121.98 197.029 124.668ZM198.193 124.668C198.193 122.508 199.081 121.212 200.605 121.212C202.129 121.212 203.005 122.508 203.005 124.668C203.005 126.804 202.129 128.1 200.605 128.1C199.081 128.1 198.193 126.804 198.193 124.668ZM205.926 129.144C206.382 129.144 206.778 128.76 206.778 128.304C206.778 127.836 206.382 127.452 205.926 127.452C205.458 127.452 205.062 127.836 205.062 128.304C205.062 128.76 205.458 129.144 205.926 129.144ZM212.91 126.252C213.798 125.04 214.11 124.308 214.11 123.288C214.11 121.524 212.718 120.168 210.918 120.168C209.13 120.168 207.762 121.476 207.762 123.276C207.762 125.004 208.974 126.3 210.774 126.3C211.074 126.3 211.386 126.24 211.686 126.12L209.514 129H210.882L212.91 126.252ZM212.91 123.276C212.91 124.464 212.094 125.304 210.918 125.304C209.766 125.304 208.95 124.464 208.95 123.276C208.95 122.088 209.766 121.224 210.918 121.224C212.094 121.224 212.91 122.088 212.91 123.276ZM215.064 126.588C215.064 128.124 216.324 129.144 218.256 129.144C220.176 129.144 221.448 128.124 221.448 126.6C221.448 125.532 220.824 124.668 219.852 124.356C220.668 124.032 221.124 123.348 221.124 122.46C221.124 121.092 219.972 120.168 218.268 120.168C216.54 120.168 215.376 121.092 215.376 122.448C215.376 123.324 215.82 124.008 216.636 124.356C215.676 124.704 215.064 125.544 215.064 126.588ZM216.456 122.52C216.456 121.716 217.164 121.188 218.244 121.188C219.336 121.188 220.02 121.716 220.02 122.544C220.02 123.384 219.336 123.924 218.244 123.924C217.164 123.924 216.456 123.372 216.456 122.52ZM216.216 126.504C216.216 125.544 217.008 124.932 218.244 124.932C219.492 124.932 220.284 125.544 220.284 126.504C220.284 127.476 219.48 128.1 218.256 128.1C217.02 128.1 216.216 127.476 216.216 126.504Z" fill="white"/>
<g opacity="0.15">
<rect width="1" height="28" transform="translate(237 142)" fill="#FF6838"/>
</g>
<path d="M20.072 156.512C21.452 156.512 22.172 157.208 22.172 158.252C22.172 159.368 21.44 160.088 20.312 160.088C19.22 160.088 18.524 159.428 18.524 158.3H17.36C17.36 160.1 18.584 161.144 20.288 161.144C22.052 161.144 23.372 160.028 23.372 158.276C23.372 156.716 22.256 155.72 20.78 155.54L23.156 153.272V152.324H17.768V153.368H21.668L19.208 155.732V156.512H20.072ZM25.5123 155.072C24.6243 156.284 24.3123 157.004 24.3123 158.036C24.3123 159.788 25.7043 161.144 27.5043 161.144C29.2923 161.144 30.6603 159.848 30.6603 158.036C30.6603 156.32 29.4483 155.024 27.6483 155.024C27.3483 155.024 27.0363 155.084 26.7363 155.204L28.9083 152.324H27.5403L25.5123 155.072ZM25.5123 158.048C25.5123 156.86 26.3283 156.02 27.5043 156.02C28.6563 156.02 29.4723 156.86 29.4723 158.048C29.4723 159.236 28.6563 160.088 27.5043 160.088C26.3283 160.088 25.5123 159.236 25.5123 158.048ZM36.5619 158.252C37.4499 157.04 37.7619 156.308 37.7619 155.288C37.7619 153.524 36.3699 152.168 34.5699 152.168C32.7819 152.168 31.4139 153.476 31.4139 155.276C31.4139 157.004 32.6259 158.3 34.4259 158.3C34.7259 158.3 35.0379 158.24 35.3379 158.12L33.1659 161H34.5339L36.5619 158.252ZM36.5619 155.276C36.5619 156.464 35.7459 157.304 34.5699 157.304C33.4179 157.304 32.6019 156.464 32.6019 155.276C32.6019 154.088 33.4179 153.224 34.5699 153.224C35.7459 153.224 36.5619 154.088 36.5619 155.276ZM44.6189 160.988V159.896H40.6109L42.4109 158.336C43.9469 157.004 44.5589 156.128 44.5589 154.892C44.5589 153.224 43.4429 152.168 41.7029 152.168C39.9389 152.168 38.7629 153.38 38.7269 155.24H39.9029C39.9269 154.004 40.6229 153.224 41.6909 153.224C42.7349 153.224 43.3589 153.872 43.3589 154.964C43.3589 155.888 42.9629 156.476 41.5589 157.688L38.7629 160.1V161L44.6189 160.988ZM45.7013 156.668C45.7013 159.368 47.0333 161.156 49.2773 161.156C51.5093 161.156 52.8413 159.368 52.8413 156.668C52.8413 153.98 51.4493 152.156 49.2773 152.156C47.0933 152.156 45.7013 153.98 45.7013 156.668ZM46.8653 156.668C46.8653 154.508 47.7533 153.212 49.2773 153.212C50.8013 153.212 51.6773 154.508 51.6773 156.668C51.6773 158.804 50.8013 160.1 49.2773 160.1C47.7533 160.1 46.8653 158.804 46.8653 156.668ZM54.5974 161.144C55.0534 161.144 55.4494 160.76 55.4494 160.304C55.4494 159.836 55.0534 159.452 54.5974 159.452C54.1294 159.452 53.7334 159.836 53.7334 160.304C53.7334 160.76 54.1294 161.144 54.5974 161.144ZM57.5292 153.38V161H58.6572V152.324H55.7052V153.38H57.5292ZM66.0643 160.988V159.896H62.0563L63.8563 158.336C65.3923 157.004 66.0043 156.128 66.0043 154.892C66.0043 153.224 64.8883 152.168 63.1483 152.168C61.3843 152.168 60.2083 153.38 60.1723 155.24H61.3483C61.3723 154.004 62.0683 153.224 63.1363 153.224C64.1803 153.224 64.8043 153.872 64.8043 154.964C64.8043 155.888 64.4083 156.476 63.0043 157.688L60.2083 160.1V161L66.0643 160.988Z" fill="#FF6838"/>
<path d="M90.0372 156.668C90.0372 159.368 91.3692 161.156 93.6132 161.156C95.8452 161.156 97.1772 159.368 97.1772 156.668C97.1772 153.98 95.7852 152.156 93.6132 152.156C91.4292 152.156 90.0372 153.98 90.0372 156.668ZM91.2012 156.668C91.2012 154.508 92.0892 153.212 93.6132 153.212C95.1372 153.212 96.0132 154.508 96.0132 156.668C96.0132 158.804 95.1372 160.1 93.6132 160.1C92.0892 160.1 91.2012 158.804 91.2012 156.668ZM98.9333 161.144C99.3893 161.144 99.7853 160.76 99.7853 160.304C99.7853 159.836 99.3893 159.452 98.9333 159.452C98.4653 159.452 98.0693 159.836 98.0693 160.304C98.0693 160.76 98.4653 161.144 98.9333 161.144ZM100.326 152.324V153.404H105.198L101.874 161H103.098L106.386 153.404V152.324H100.326ZM109.781 161.144C111.653 161.144 112.937 159.884 112.937 158.084C112.937 156.416 111.797 155.18 110.033 155.18C109.385 155.18 108.809 155.36 108.353 155.708L108.929 153.404H112.421V152.324H108.077L107.021 156.776L108.017 157.028C108.413 156.536 109.085 156.188 109.817 156.188C111.029 156.188 111.737 157.016 111.737 158.132C111.737 159.308 110.981 160.088 109.805 160.088C108.701 160.088 108.017 159.404 108.017 158.288H106.853C106.853 160.016 108.005 161.144 109.781 161.144ZM113.931 158.588C113.931 160.124 115.191 161.144 117.123 161.144C119.043 161.144 120.315 160.124 120.315 158.6C120.315 157.532 119.691 156.668 118.719 156.356C119.535 156.032 119.991 155.348 119.991 154.46C119.991 153.092 118.839 152.168 117.135 152.168C115.407 152.168 114.243 153.092 114.243 154.448C114.243 155.324 114.687 156.008 115.503 156.356C114.543 156.704 113.931 157.544 113.931 158.588ZM115.323 154.52C115.323 153.716 116.031 153.188 117.111 153.188C118.203 153.188 118.887 153.716 118.887 154.544C118.887 155.384 118.203 155.924 117.111 155.924C116.031 155.924 115.323 155.372 115.323 154.52ZM115.083 158.504C115.083 157.544 115.875 156.932 117.111 156.932C118.359 156.932 119.151 157.544 119.151 158.504C119.151 159.476 118.347 160.1 117.123 160.1C115.887 160.1 115.083 159.476 115.083 158.504ZM126.507 158.252C127.395 157.04 127.707 156.308 127.707 155.288C127.707 153.524 126.315 152.168 124.515 152.168C122.727 152.168 121.359 153.476 121.359 155.276C121.359 157.004 122.571 158.3 124.371 158.3C124.671 158.3 124.983 158.24 125.283 158.12L123.111 161H124.479L126.507 158.252ZM126.507 155.276C126.507 156.464 125.691 157.304 124.515 157.304C123.363 157.304 122.547 156.464 122.547 155.276C122.547 154.088 123.363 153.224 124.515 153.224C125.691 153.224 126.507 154.088 126.507 155.276ZM129.79 155.072C128.902 156.284 128.59 157.004 128.59 158.036C128.59 159.788 129.982 161.144 131.782 161.144C133.57 161.144 134.938 159.848 134.938 158.036C134.938 156.32 133.726 155.024 131.926 155.024C131.626 155.024 131.314 155.084 131.014 155.204L133.186 152.324H131.818L129.79 155.072ZM129.79 158.048C129.79 156.86 130.606 156.02 131.782 156.02C132.934 156.02 133.75 156.86 133.75 158.048C133.75 159.236 132.934 160.088 131.782 160.088C130.606 160.088 129.79 159.236 129.79 158.048ZM138.914 161.144C140.786 161.144 142.07 159.884 142.07 158.084C142.07 156.416 140.93 155.18 139.166 155.18C138.518 155.18 137.942 155.36 137.486 155.708L138.062 153.404H141.554V152.324H137.21L136.154 156.776L137.15 157.028C137.546 156.536 138.218 156.188 138.95 156.188C140.162 156.188 140.87 157.016 140.87 158.132C140.87 159.308 140.114 160.088 138.938 160.088C137.834 160.088 137.15 159.404 137.15 158.288H135.986C135.986 160.016 137.138 161.144 138.914 161.144Z" fill="white"/>
<path d="M170.529 160.988V159.896H166.521L168.321 158.336C169.857 157.004 170.469 156.128 170.469 154.892C170.469 153.224 169.353 152.168 167.613 152.168C165.849 152.168 164.673 153.38 164.637 155.24H165.813C165.837 154.004 166.533 153.224 167.601 153.224C168.645 153.224 169.269 153.872 169.269 154.964C169.269 155.888 168.873 156.476 167.469 157.688L164.673 160.1V161L170.529 160.988ZM171.587 158.588C171.587 160.124 172.847 161.144 174.779 161.144C176.699 161.144 177.971 160.124 177.971 158.6C177.971 157.532 177.347 156.668 176.375 156.356C177.191 156.032 177.647 155.348 177.647 154.46C177.647 153.092 176.495 152.168 174.791 152.168C173.063 152.168 171.899 153.092 171.899 154.448C171.899 155.324 172.343 156.008 173.159 156.356C172.199 156.704 171.587 157.544 171.587 158.588ZM172.979 154.52C172.979 153.716 173.687 153.188 174.767 153.188C175.859 153.188 176.543 153.716 176.543 154.544C176.543 155.384 175.859 155.924 174.767 155.924C173.687 155.924 172.979 155.372 172.979 154.52ZM172.739 158.504C172.739 157.544 173.531 156.932 174.767 156.932C176.015 156.932 176.807 157.544 176.807 158.504C176.807 159.476 176.003 160.1 174.779 160.1C173.543 160.1 172.739 159.476 172.739 158.504ZM180.903 160.532C180.903 159.872 180.495 159.452 179.991 159.452C179.511 159.452 179.187 159.8 179.187 160.28C179.187 160.724 179.523 161.012 179.919 161.012C180.063 161.012 180.159 160.988 180.243 160.94C180.243 161.312 179.895 161.636 179.403 161.72V162.224C180.255 162.116 180.903 161.396 180.903 160.532ZM181.807 156.668C181.807 159.368 183.139 161.156 185.383 161.156C187.615 161.156 188.947 159.368 188.947 156.668C188.947 153.98 187.555 152.156 185.383 152.156C183.199 152.156 181.807 153.98 181.807 156.668ZM182.971 156.668C182.971 154.508 183.859 153.212 185.383 153.212C186.907 153.212 187.783 154.508 187.783 156.668C187.783 158.804 186.907 160.1 185.383 160.1C183.859 160.1 182.971 158.804 182.971 156.668ZM195.947 160.988V159.896H191.939L193.739 158.336C195.275 157.004 195.887 156.128 195.887 154.892C195.887 153.224 194.771 152.168 193.031 152.168C191.267 152.168 190.091 153.38 190.055 155.24H191.231C191.255 154.004 191.951 153.224 193.019 153.224C194.063 153.224 194.687 153.872 194.687 154.964C194.687 155.888 194.291 156.476 192.887 157.688L190.091 160.1V161L195.947 160.988ZM197.029 156.668C197.029 159.368 198.361 161.156 200.605 161.156C202.837 161.156 204.169 159.368 204.169 156.668C204.169 153.98 202.777 152.156 200.605 152.156C198.421 152.156 197.029 153.98 197.029 156.668ZM198.193 156.668C198.193 154.508 199.081 153.212 200.605 153.212C202.129 153.212 203.005 154.508 203.005 156.668C203.005 158.804 202.129 160.1 200.605 160.1C199.081 160.1 198.193 158.804 198.193 156.668ZM205.926 161.144C206.382 161.144 206.778 160.76 206.778 160.304C206.778 159.836 206.382 159.452 205.926 159.452C205.458 159.452 205.062 159.836 205.062 160.304C205.062 160.76 205.458 161.144 205.926 161.144ZM212.91 158.252C213.798 157.04 214.11 156.308 214.11 155.288C214.11 153.524 212.718 152.168 210.918 152.168C209.13 152.168 207.762 153.476 207.762 155.276C207.762 157.004 208.974 158.3 210.774 158.3C211.074 158.3 211.386 158.24 211.686 158.12L209.514 161H210.882L212.91 158.252ZM212.91 155.276C212.91 156.464 212.094 157.304 210.918 157.304C209.766 157.304 208.95 156.464 208.95 155.276C208.95 154.088 209.766 153.224 210.918 153.224C212.094 153.224 212.91 154.088 212.91 155.276ZM215.064 158.588C215.064 160.124 216.324 161.144 218.256 161.144C220.176 161.144 221.448 160.124 221.448 158.6C221.448 157.532 220.824 156.668 219.852 156.356C220.668 156.032 221.124 155.348 221.124 154.46C221.124 153.092 219.972 152.168 218.268 152.168C216.54 152.168 215.376 153.092 215.376 154.448C215.376 155.324 215.82 156.008 216.636 156.356C215.676 156.704 215.064 157.544 215.064 158.588ZM216.456 154.52C216.456 153.716 217.164 153.188 218.244 153.188C219.336 153.188 220.02 153.716 220.02 154.544C220.02 155.384 219.336 155.924 218.244 155.924C217.164 155.924 216.456 155.372 216.456 154.52ZM216.216 158.504C216.216 157.544 217.008 156.932 218.244 156.932C219.492 156.932 220.284 157.544 220.284 158.504C220.284 159.476 219.48 160.1 218.256 160.1C217.02 160.1 216.216 159.476 216.216 158.504Z" fill="white"/>
<g opacity="0.15">
<rect width="236" height="28" transform="translate(2 174)" fill="#FF6838"/>
</g>
<path d="M20.072 188.512C21.452 188.512 22.172 189.208 22.172 190.252C22.172 191.368 21.44 192.088 20.312 192.088C19.22 192.088 18.524 191.428 18.524 190.3H17.36C17.36 192.1 18.584 193.144 20.288 193.144C22.052 193.144 23.372 192.028 23.372 190.276C23.372 188.716 22.256 187.72 20.78 187.54L23.156 185.272V184.324H17.768V185.368H21.668L19.208 187.732V188.512H20.072ZM25.5123 187.072C24.6243 188.284 24.3123 189.004 24.3123 190.036C24.3123 191.788 25.7043 193.144 27.5043 193.144C29.2923 193.144 30.6603 191.848 30.6603 190.036C30.6603 188.32 29.4483 187.024 27.6483 187.024C27.3483 187.024 27.0363 187.084 26.7363 187.204L28.9083 184.324H27.5403L25.5123 187.072ZM25.5123 190.048C25.5123 188.86 26.3283 188.02 27.5043 188.02C28.6563 188.02 29.4723 188.86 29.4723 190.048C29.4723 191.236 28.6563 192.088 27.5043 192.088C26.3283 192.088 25.5123 191.236 25.5123 190.048ZM36.5619 190.252C37.4499 189.04 37.7619 188.308 37.7619 187.288C37.7619 185.524 36.3699 184.168 34.5699 184.168C32.7819 184.168 31.4139 185.476 31.4139 187.276C31.4139 189.004 32.6259 190.3 34.4259 190.3C34.7259 190.3 35.0379 190.24 35.3379 190.12L33.1659 193H34.5339L36.5619 190.252ZM36.5619 187.276C36.5619 188.464 35.7459 189.304 34.5699 189.304C33.4179 189.304 32.6019 188.464 32.6019 187.276C32.6019 186.088 33.4179 185.224 34.5699 185.224C35.7459 185.224 36.5619 186.088 36.5619 187.276ZM44.6189 192.988V191.896H40.6109L42.4109 190.336C43.9469 189.004 44.5589 188.128 44.5589 186.892C44.5589 185.224 43.4429 184.168 41.7029 184.168C39.9389 184.168 38.7629 185.38 38.7269 187.24H39.9029C39.9269 186.004 40.6229 185.224 41.6909 185.224C42.7349 185.224 43.3589 185.872 43.3589 186.964C43.3589 187.888 42.9629 188.476 41.5589 189.688L38.7629 192.1V193L44.6189 192.988ZM45.7013 188.668C45.7013 191.368 47.0333 193.156 49.2773 193.156C51.5093 193.156 52.8413 191.368 52.8413 188.668C52.8413 185.98 51.4493 184.156 49.2773 184.156C47.0933 184.156 45.7013 185.98 45.7013 188.668ZM46.8653 188.668C46.8653 186.508 47.7533 185.212 49.2773 185.212C50.8013 185.212 51.6773 186.508 51.6773 188.668C51.6773 190.804 50.8013 192.1 49.2773 192.1C47.7533 192.1 46.8653 190.804 46.8653 188.668ZM54.5974 193.144C55.0534 193.144 55.4494 192.76 55.4494 192.304C55.4494 191.836 55.0534 191.452 54.5974 191.452C54.1294 191.452 53.7334 191.836 53.7334 192.304C53.7334 192.76 54.1294 193.144 54.5974 193.144ZM57.5292 185.38V193H58.6572V184.324H55.7052V185.38H57.5292ZM66.0643 192.988V191.896H62.0563L63.8563 190.336C65.3923 189.004 66.0043 188.128 66.0043 186.892C66.0043 185.224 64.8883 184.168 63.1483 184.168C61.3843 184.168 60.2083 185.38 60.1723 187.24H61.3483C61.3723 186.004 62.0683 185.224 63.1363 185.224C64.1803 185.224 64.8043 185.872 64.8043 186.964C64.8043 187.888 64.4083 188.476 63.0043 189.688L60.2083 192.1V193L66.0643 192.988Z" fill="#FF6838"/>
<path d="M90.0372 188.668C90.0372 191.368 91.3692 193.156 93.6132 193.156C95.8452 193.156 97.1772 191.368 97.1772 188.668C97.1772 185.98 95.7852 184.156 93.6132 184.156C91.4292 184.156 90.0372 185.98 90.0372 188.668ZM91.2012 188.668C91.2012 186.508 92.0892 185.212 93.6132 185.212C95.1372 185.212 96.0132 186.508 96.0132 188.668C96.0132 190.804 95.1372 192.1 93.6132 192.1C92.0892 192.1 91.2012 190.804 91.2012 188.668ZM98.9333 193.144C99.3893 193.144 99.7853 192.76 99.7853 192.304C99.7853 191.836 99.3893 191.452 98.9333 191.452C98.4653 191.452 98.0693 191.836 98.0693 192.304C98.0693 192.76 98.4653 193.144 98.9333 193.144ZM100.326 184.324V185.404H105.198L101.874 193H103.098L106.386 185.404V184.324H100.326ZM109.781 193.144C111.653 193.144 112.937 191.884 112.937 190.084C112.937 188.416 111.797 187.18 110.033 187.18C109.385 187.18 108.809 187.36 108.353 187.708L108.929 185.404H112.421V184.324H108.077L107.021 188.776L108.017 189.028C108.413 188.536 109.085 188.188 109.817 188.188C111.029 188.188 111.737 189.016 111.737 190.132C111.737 191.308 110.981 192.088 109.805 192.088C108.701 192.088 108.017 191.404 108.017 190.288H106.853C106.853 192.016 108.005 193.144 109.781 193.144ZM113.931 190.588C113.931 192.124 115.191 193.144 117.123 193.144C119.043 193.144 120.315 192.124 120.315 190.6C120.315 189.532 119.691 188.668 118.719 188.356C119.535 188.032 119.991 187.348 119.991 186.46C119.991 185.092 118.839 184.168 117.135 184.168C115.407 184.168 114.243 185.092 114.243 186.448C114.243 187.324 114.687 188.008 115.503 188.356C114.543 188.704 113.931 189.544 113.931 190.588ZM115.323 186.52C115.323 185.716 116.031 185.188 117.111 185.188C118.203 185.188 118.887 185.716 118.887 186.544C118.887 187.384 118.203 187.924 117.111 187.924C116.031 187.924 115.323 187.372 115.323 186.52ZM115.083 190.504C115.083 189.544 115.875 188.932 117.111 188.932C118.359 188.932 119.151 189.544 119.151 190.504C119.151 191.476 118.347 192.1 117.123 192.1C115.887 192.1 115.083 191.476 115.083 190.504ZM126.507 190.252C127.395 189.04 127.707 188.308 127.707 187.288C127.707 185.524 126.315 184.168 124.515 184.168C122.727 184.168 121.359 185.476 121.359 187.276C121.359 189.004 122.571 190.3 124.371 190.3C124.671 190.3 124.983 190.24 125.283 190.12L123.111 193H124.479L126.507 190.252ZM126.507 187.276C126.507 188.464 125.691 189.304 124.515 189.304C123.363 189.304 122.547 188.464 122.547 187.276C122.547 186.088 123.363 185.224 124.515 185.224C125.691 185.224 126.507 186.088 126.507 187.276ZM129.79 187.072C128.902 188.284 128.59 189.004 128.59 190.036C128.59 191.788 129.982 193.144 131.782 193.144C133.57 193.144 134.938 191.848 134.938 190.036C134.938 188.32 133.726 187.024 131.926 187.024C131.626 187.024 131.314 187.084 131.014 187.204L133.186 184.324H131.818L129.79 187.072ZM129.79 190.048C129.79 188.86 130.606 188.02 131.782 188.02C132.934 188.02 133.75 188.86 133.75 190.048C133.75 191.236 132.934 192.088 131.782 192.088C130.606 192.088 129.79 191.236 129.79 190.048ZM138.914 193.144C140.786 193.144 142.07 191.884 142.07 190.084C142.07 188.416 140.93 187.18 139.166 187.18C138.518 187.18 137.942 187.36 137.486 187.708L138.062 185.404H141.554V184.324H137.21L136.154 188.776L137.15 189.028C137.546 188.536 138.218 188.188 138.95 188.188C140.162 188.188 140.87 189.016 140.87 190.132C140.87 191.308 140.114 192.088 138.938 192.088C137.834 192.088 137.15 191.404 137.15 190.288H135.986C135.986 192.016 137.138 193.144 138.914 193.144Z" fill="white"/>
<path d="M170.529 192.988V191.896H166.521L168.321 190.336C169.857 189.004 170.469 188.128 170.469 186.892C170.469 185.224 169.353 184.168 167.613 184.168C165.849 184.168 164.673 185.38 164.637 187.24H165.813C165.837 186.004 166.533 185.224 167.601 185.224C168.645 185.224 169.269 185.872 169.269 186.964C169.269 187.888 168.873 188.476 167.469 189.688L164.673 192.1V193L170.529 192.988ZM171.587 190.588C171.587 192.124 172.847 193.144 174.779 193.144C176.699 193.144 177.971 192.124 177.971 190.6C177.971 189.532 177.347 188.668 176.375 188.356C177.191 188.032 177.647 187.348 177.647 186.46C177.647 185.092 176.495 184.168 174.791 184.168C173.063 184.168 171.899 185.092 171.899 186.448C171.899 187.324 172.343 188.008 173.159 188.356C172.199 188.704 171.587 189.544 171.587 190.588ZM172.979 186.52C172.979 185.716 173.687 185.188 174.767 185.188C175.859 185.188 176.543 185.716 176.543 186.544C176.543 187.384 175.859 187.924 174.767 187.924C173.687 187.924 172.979 187.372 172.979 186.52ZM172.739 190.504C172.739 189.544 173.531 188.932 174.767 188.932C176.015 188.932 176.807 189.544 176.807 190.504C176.807 191.476 176.003 192.1 174.779 192.1C173.543 192.1 172.739 191.476 172.739 190.504ZM180.903 192.532C180.903 191.872 180.495 191.452 179.991 191.452C179.511 191.452 179.187 191.8 179.187 192.28C179.187 192.724 179.523 193.012 179.919 193.012C180.063 193.012 180.159 192.988 180.243 192.94C180.243 193.312 179.895 193.636 179.403 193.72V194.224C180.255 194.116 180.903 193.396 180.903 192.532ZM181.807 188.668C181.807 191.368 183.139 193.156 185.383 193.156C187.615 193.156 188.947 191.368 188.947 188.668C188.947 185.98 187.555 184.156 185.383 184.156C183.199 184.156 181.807 185.98 181.807 188.668ZM182.971 188.668C182.971 186.508 183.859 185.212 185.383 185.212C186.907 185.212 187.783 186.508 187.783 188.668C187.783 190.804 186.907 192.1 185.383 192.1C183.859 192.1 182.971 190.804 182.971 188.668ZM195.947 192.988V191.896H191.939L193.739 190.336C195.275 189.004 195.887 188.128 195.887 186.892C195.887 185.224 194.771 184.168 193.031 184.168C191.267 184.168 190.091 185.38 190.055 187.24H191.231C191.255 186.004 191.951 185.224 193.019 185.224C194.063 185.224 194.687 185.872 194.687 186.964C194.687 187.888 194.291 188.476 192.887 189.688L190.091 192.1V193L195.947 192.988ZM197.029 188.668C197.029 191.368 198.361 193.156 200.605 193.156C202.837 193.156 204.169 191.368 204.169 188.668C204.169 185.98 202.777 184.156 200.605 184.156C198.421 184.156 197.029 185.98 197.029 188.668ZM198.193 188.668C198.193 186.508 199.081 185.212 200.605 185.212C202.129 185.212 203.005 186.508 203.005 188.668C203.005 190.804 202.129 192.1 200.605 192.1C199.081 192.1 198.193 190.804 198.193 188.668ZM205.926 193.144C206.382 193.144 206.778 192.76 206.778 192.304C206.778 191.836 206.382 191.452 205.926 191.452C205.458 191.452 205.062 191.836 205.062 192.304C205.062 192.76 205.458 193.144 205.926 193.144ZM212.91 190.252C213.798 189.04 214.11 188.308 214.11 187.288C214.11 185.524 212.718 184.168 210.918 184.168C209.13 184.168 207.762 185.476 207.762 187.276C207.762 189.004 208.974 190.3 210.774 190.3C211.074 190.3 211.386 190.24 211.686 190.12L209.514 193H210.882L212.91 190.252ZM212.91 187.276C212.91 188.464 212.094 189.304 210.918 189.304C209.766 189.304 208.95 188.464 208.95 187.276C208.95 186.088 209.766 185.224 210.918 185.224C212.094 185.224 212.91 186.088 212.91 187.276ZM215.064 190.588C215.064 192.124 216.324 193.144 218.256 193.144C220.176 193.144 221.448 192.124 221.448 190.6C221.448 189.532 220.824 188.668 219.852 188.356C220.668 188.032 221.124 187.348 221.124 186.46C221.124 185.092 219.972 184.168 218.268 184.168C216.54 184.168 215.376 185.092 215.376 186.448C215.376 187.324 215.82 188.008 216.636 188.356C215.676 188.704 215.064 189.544 215.064 190.588ZM216.456 186.52C216.456 185.716 217.164 185.188 218.244 185.188C219.336 185.188 220.02 185.716 220.02 186.544C220.02 187.384 219.336 187.924 218.244 187.924C217.164 187.924 216.456 187.372 216.456 186.52ZM216.216 190.504C216.216 189.544 217.008 188.932 218.244 188.932C219.492 188.932 220.284 189.544 220.284 190.504C220.284 191.476 219.48 192.1 218.256 192.1C217.02 192.1 216.216 191.476 216.216 190.504Z" fill="white"/>
</svg>
