<svg width="236" height="32" viewBox="0 0 236 32" fill="none" xmlns="http://www.w3.org/2000/svg">
<rect x="3" width="32" height="32" rx="4" fill="#353945"/>
<rect x="13" y="11" width="12" height="2" rx="1" fill="#FF6838"/>
<rect x="13" y="15" width="12" height="2" rx="1" fill="#B1B5C4"/>
<rect x="13" y="19" width="12" height="2" rx="1" fill="#25C26E"/>
<rect x="49" y="11" width="12" height="2" rx="1" fill="#B1B5C4"/>
<rect x="49" y="15" width="12" height="2" rx="1" fill="#B1B5C4"/>
<rect x="49" y="19" width="12" height="2" rx="1" fill="#25C26E"/>
<rect x="85" y="11" width="12" height="2" rx="1" fill="#FF6838"/>
<rect x="85" y="15" width="12" height="2" rx="1" fill="#B1B5C4"/>
<rect x="85" y="19" width="12" height="2" rx="1" fill="#B1B5C4"/>
<rect x="170" width="63" height="32" rx="4" fill="#353945"/>
<path d="M180.244 13.38V21H181.372V12.324H178.42V13.38H180.244ZM182.959 16.668C182.959 19.368 184.291 21.156 186.535 21.156C188.767 21.156 190.099 19.368 190.099 16.668C190.099 13.98 188.707 12.156 186.535 12.156C184.351 12.156 182.959 13.98 182.959 16.668ZM184.123 16.668C184.123 14.508 185.011 13.212 186.535 13.212C188.059 13.212 188.935 14.508 188.935 16.668C188.935 18.804 188.059 20.1 186.535 20.1C185.011 20.1 184.123 18.804 184.123 16.668Z" fill="#F4F5F6"/>
<path fill-rule="evenodd" clip-rule="evenodd" d="M217.207 13.7929C216.817 13.4024 216.183 13.4024 215.793 13.7929L213 16.5858L210.207 13.7929C209.817 13.4024 209.183 13.4024 208.793 13.7929C208.402 14.1834 208.402 14.8166 208.793 15.2071L212.293 18.7071C212.683 19.0976 213.317 19.0976 213.707 18.7071L217.207 15.2071C217.598 14.8166 217.598 14.1834 217.207 13.7929Z" fill="#777E91"/>
</svg>
